<svg version="1.1" id="Layer_1" xmlns="http://www.w3.org/2000/svg" xmlns:xlink="http://www.w3.org/1999/xlink" x="0px" y="0px"
	 width="100%" viewBox="0 0 200 200" enable-background="new 0 0 200 200" xml:space="preserve">
<path fill="#FEFFFE" opacity="1.000000" stroke="none" 
	d="
M201.000000,138.000000 
	C201.000000,158.988419 201.000000,179.976852 201.000000,200.982635 
	C134.381668,200.982635 67.763336,200.982635 1.072502,200.982635 
	C1.072502,134.418488 1.072502,67.836884 1.072502,1.127636 
	C67.544601,1.127636 134.089539,1.127636 201.000000,1.127636 
	C201.000000,44.353542 201.000000,87.708115 200.659882,131.488297 
	C199.811768,131.494827 199.303741,131.075729 198.727554,130.380249 
	C198.590042,129.737442 198.520706,129.371002 198.591476,128.645721 
	C198.742722,127.520401 198.753860,126.753937 198.873657,125.532898 
	C198.965332,120.109482 198.948334,115.140640 198.968338,109.832291 
	C198.745682,108.668434 198.486038,107.844101 198.129700,106.678429 
	C197.964767,105.398460 197.896515,104.459816 197.873566,103.171356 
	C197.666138,102.200081 197.413391,101.578613 197.063019,100.955154 
	C196.965378,100.953163 196.808975,101.070107 196.834259,100.740784 
	C196.817123,99.974358 196.774704,99.537262 197.027679,98.917557 
	C196.615906,97.152687 195.908783,95.570412 195.084442,93.747772 
	C194.922119,93.156891 194.877014,92.806374 194.828781,92.174194 
	C194.605850,91.599701 194.386047,91.306862 194.041199,90.825806 
	C193.916138,90.637596 193.923935,90.185699 193.899200,89.950638 
	C193.767090,89.399467 193.563736,89.167488 193.127686,88.801666 
	C192.984512,88.412262 192.978088,88.240845 192.988632,87.681427 
	C192.286377,86.229828 191.567154,85.166222 190.906860,84.072464 
	C190.965790,84.042320 190.882721,84.145401 190.921814,83.741608 
	C190.199982,77.361427 187.701584,74.417870 183.011505,73.993889 
	C182.998718,74.000725 183.010422,73.974068 182.911163,73.752228 
	C182.615921,73.253098 182.353317,73.072807 182.011444,72.995323 
	C181.998779,73.001137 182.010345,72.975777 181.905182,72.751740 
	C181.593338,72.248207 181.319244,72.075981 180.988983,72.004837 
	C181.000244,71.998657 180.989639,72.021759 180.882233,71.787338 
	C180.483139,71.386032 180.191422,71.219139 179.937241,71.035660 
	C179.974762,71.019066 179.952271,71.097977 179.847672,70.849121 
	C179.432068,70.440857 179.121063,70.281456 178.861969,70.097931 
	C178.913879,70.073807 178.867081,70.178291 178.870789,69.801422 
	C177.268127,68.608955 175.661743,67.793373 174.034607,66.993446 
	C174.013840,67.009109 174.006668,66.957603 173.840363,66.716743 
	C173.128250,66.312477 172.582474,66.149063 172.023361,65.997063 
	C172.010040,66.008476 172.002411,65.974304 171.803497,65.719933 
	C170.988632,65.343796 170.372696,65.222038 169.422791,65.092484 
	C168.059784,64.693199 167.030746,64.301712 165.951080,63.545135 
	C163.933716,58.943897 160.964676,62.155304 158.006790,62.233662 
	C153.900574,62.247425 150.212891,62.201565 146.133362,62.083824 
	C143.506622,61.520588 140.857529,59.633621 139.661346,63.863373 
	C138.234497,64.340683 137.127930,64.676003 135.719147,65.013397 
	C134.944244,65.341248 134.471573,65.667007 133.999146,65.996841 
	C133.999405,66.000916 133.990356,65.996712 133.787827,66.039978 
	C133.317337,66.201164 133.131119,66.396873 132.833771,66.830971 
	C132.475311,67.015381 132.309692,67.039185 131.769699,67.045006 
	C130.635666,67.740318 129.876022,68.453621 129.097488,69.118317 
	C129.078598,69.069702 129.175720,69.107719 128.918976,69.168900 
	C128.450760,69.500610 128.239273,69.771149 128.016312,70.018845 
	C128.004837,69.996002 128.046280,70.026474 127.734711,70.130661 
	C126.392532,69.686333 125.262222,69.264389 124.359627,68.553383 
	C123.473000,67.854942 122.817657,66.862877 121.974365,65.537949 
	C121.945480,53.717190 122.003075,42.358154 122.443260,30.907589 
	C124.075027,27.715332 126.039780,24.522913 121.422684,22.137600 
	C120.754303,22.051889 120.376991,21.965103 119.917068,21.523249 
	C117.678070,19.650032 115.590271,18.702885 113.534546,21.946291 
	C107.382843,21.969007 101.693344,21.915014 95.945770,21.539291 
	C94.926643,21.455322 93.965584,21.693083 92.841881,22.039797 
	C92.679230,22.148750 92.287788,22.139826 92.089973,22.147762 
	C91.785492,22.230145 91.579109,22.355465 91.587212,22.371346 
	C91.696518,22.585560 91.835678,22.784546 92.047134,23.450918 
	C92.103882,75.238846 92.080925,126.563156 92.068420,178.264557 
	C93.494576,179.337921 94.917534,180.639999 96.324707,180.623169 
	C101.756065,180.558121 107.186134,180.122223 112.608727,179.717773 
	C114.759277,179.557373 116.889061,179.118469 119.387955,178.670532 
	C120.484238,178.331848 121.220856,178.129013 122.112701,178.153534 
	C122.678032,178.365692 123.088120,178.350494 123.498215,178.335281 
	C123.024879,177.890762 122.551552,177.446228 121.983109,176.608078 
	C121.955757,175.143005 122.023529,174.071564 122.523247,173.000137 
	C124.688362,172.966858 126.421539,172.933533 128.105133,172.902527 
	C128.055557,172.904846 128.115433,172.825684 128.180176,173.087143 
	C128.531601,173.547760 128.818283,173.746933 129.066376,173.961670 
	C129.027756,173.977264 129.051682,173.897491 129.158676,174.147141 
	C129.581970,174.549072 129.898270,174.701340 130.160370,174.877838 
	C130.106186,174.902069 130.154907,174.793808 130.160034,175.163361 
	C131.414673,176.031616 132.664215,176.530319 134.248932,177.051147 
	C135.395874,177.446762 136.207611,177.820236 137.214539,178.416901 
	C137.980087,178.743149 138.550461,178.846237 139.356583,178.927475 
	C139.592346,178.905624 140.012634,179.123825 140.274658,179.375534 
	C141.251282,179.664627 141.965866,179.702026 143.057739,179.680939 
	C144.955856,179.797256 146.476669,179.972092 148.054184,180.463684 
	C149.075241,180.577209 150.039597,180.373947 151.415634,180.096802 
	C153.218430,180.014282 154.609528,180.005630 156.276291,180.285278 
	C160.456360,180.733719 165.063751,183.063614 167.222504,177.065125 
	C167.433365,176.945435 167.917816,176.966507 168.325592,176.987457 
	C173.634521,176.392960 178.164001,175.209351 180.014587,169.427979 
	C181.802917,167.433563 183.452881,165.730286 185.313950,163.905350 
	C185.784912,163.559784 185.931519,163.277115 185.983597,162.962357 
	C186.002365,162.989029 185.939407,162.971970 186.188354,162.831879 
	C186.580887,162.349762 186.724487,162.007736 186.889313,161.462357 
	C186.910538,161.259003 187.213440,160.984314 187.408096,160.861755 
	C187.835510,160.513260 187.956192,160.238159 188.002762,159.641876 
	C188.163071,159.233643 188.285400,159.097412 188.567642,158.864227 
	C188.912964,158.583252 189.017136,158.361115 189.021118,158.070801 
	C189.002121,158.040680 189.071564,158.024918 189.287384,157.878143 
	C189.609863,157.410248 189.716522,157.089142 189.854797,156.827087 
	C189.886429,156.886154 189.766556,156.826279 190.131439,156.832214 
	C193.575195,151.806732 198.268661,147.407990 196.832840,140.337158 
	C196.929977,139.708130 197.047607,139.357437 197.496521,138.967499 
	C198.885208,138.618835 199.942596,138.309418 201.000000,138.000000 
M48.609894,60.355347 
	C48.176453,60.939945 47.743015,61.524544 47.184521,63.024071 
	C47.217014,100.651779 47.249508,138.279480 47.078556,176.711304 
	C48.135170,177.412216 49.179211,178.697678 50.250404,178.720718 
	C58.191353,178.891556 66.138817,178.871765 74.080803,178.725693 
	C74.969292,178.709335 75.836380,177.529388 76.821709,175.972290 
	C76.794029,138.015274 76.766342,100.058266 76.838188,61.385162 
	C74.868355,61.153259 72.898514,60.921360 70.004280,60.600037 
	C63.022545,60.623398 56.040813,60.646763 48.609894,60.355347 
M3.125129,152.500000 
	C3.125129,160.934006 3.125129,169.368027 3.125129,177.859558 
	C13.399623,177.859558 22.939362,177.859558 32.526924,177.859558 
	C32.526924,150.719147 32.526924,124.002007 32.526924,97.243027 
	C22.626198,97.243027 13.078928,97.243027 3.125240,97.243027 
	C3.125240,115.590340 3.125240,133.545166 3.125129,152.500000 
z"/>
<path fill="#EFF7FC" opacity="1.000000" stroke="none" 
	d="
M198.795731,130.656647 
	C199.303741,131.075729 199.811768,131.494827 200.659882,131.956955 
	C201.000000,133.714355 201.000000,135.428711 201.000000,137.571533 
	C199.942596,138.309418 198.885208,138.618835 197.455582,138.632812 
	C197.151184,137.456253 197.219009,136.575104 197.546173,135.401337 
	C198.135590,133.624695 198.465652,132.140671 198.795731,130.656647 
z"/>
<path fill="#042E96" opacity="1.000000" stroke="none" 
	d="
M197.286835,135.693970 
	C197.219009,136.575104 197.151184,137.456253 197.124298,138.672058 
	C197.047607,139.357437 196.929977,139.708130 196.571655,140.600555 
	C194.142838,146.370270 191.954697,151.598267 189.766541,156.826279 
	C189.766556,156.826279 189.886429,156.886154 189.612457,156.947906 
	C189.249512,157.348083 189.160538,157.686493 189.071564,158.024918 
	C189.071564,158.024918 189.002121,158.040680 188.846313,158.155685 
	C188.464111,158.446762 188.369858,158.676926 188.407715,158.961182 
	C188.285400,159.097412 188.163071,159.233643 187.787628,159.749161 
	C187.240540,160.343582 187.133514,160.628876 187.213440,160.984314 
	C187.213440,160.984314 186.910538,161.259003 186.632141,161.591949 
	C186.215637,162.273926 186.077530,162.622955 185.939407,162.971970 
	C185.939407,162.971970 186.002365,162.989029 185.749268,163.060089 
	C185.365067,163.429779 185.233963,163.728394 185.102859,164.027008 
	C183.452881,165.730286 181.802917,167.433563 179.688263,169.550842 
	C175.454987,172.298721 171.686401,174.632614 167.917816,176.966522 
	C167.917816,176.966507 167.433365,176.945435 166.842133,177.073257 
	C162.834152,178.133041 159.417404,179.065018 156.000641,179.996979 
	C154.609528,180.005630 153.218430,180.014282 151.043915,180.020920 
	C149.506180,180.061569 148.751831,180.104248 147.997482,180.146912 
	C146.476669,179.972092 144.955856,179.797256 142.786957,179.442261 
	C141.430115,179.215988 140.721375,179.169907 140.012634,179.123810 
	C140.012634,179.123825 139.592346,178.905624 139.161026,178.704437 
	C138.159592,178.400070 137.589462,178.296906 137.019348,178.193726 
	C136.207611,177.820236 135.395874,177.446762 134.052307,176.802322 
	C132.398621,175.952179 131.276764,175.373001 130.154907,174.793808 
	C130.154907,174.793808 130.106186,174.902069 130.059113,174.625793 
	C129.691940,174.198837 129.371811,174.048157 129.051682,173.897491 
	C129.051682,173.897491 129.027756,173.977264 128.989563,173.705276 
	C128.672745,173.230743 128.394089,173.028214 128.115433,172.825684 
	C128.115433,172.825684 128.055557,172.904846 128.105286,172.441437 
	C128.080597,165.652420 128.006165,159.326797 128.027710,152.678375 
	C128.400253,151.588257 128.676804,150.820938 129.135193,150.340820 
	C131.874207,151.786240 134.431381,152.944427 137.070831,154.184418 
	C137.153122,154.266235 137.372528,154.190628 137.681915,154.457886 
	C139.325668,154.800354 140.660034,154.875565 142.325317,155.038376 
	C143.104553,155.062973 143.552856,154.999969 144.251907,155.018707 
	C144.665878,155.035095 144.829117,154.969757 145.331024,154.962799 
	C146.117966,154.942474 146.566238,154.863785 147.324295,154.826630 
	C147.975693,154.660141 148.317322,154.452118 148.897034,154.277161 
	C149.460251,154.255295 149.746780,154.119141 150.340942,153.921844 
	C152.239166,153.007751 153.791214,152.073593 155.553665,151.100967 
	C155.764084,151.062485 156.022919,150.721832 156.238525,150.699570 
	C156.721695,150.513626 156.870148,150.275635 156.934326,149.976257 
	C156.969162,149.989166 156.969131,149.914841 157.222946,149.877243 
	C157.647446,149.559479 157.818115,149.279297 157.995010,149.000183 
	C158.001221,149.001221 157.999023,148.988922 158.246475,148.924423 
	C158.654053,148.571533 158.814178,148.283142 158.988281,147.998718 
	C159.002258,148.002701 158.994141,147.974869 159.238251,147.910461 
	C159.618637,147.555084 159.754913,147.264099 160.180878,146.787979 
	C169.650253,134.399979 170.971359,111.670898 163.274780,98.358002 
	C156.603256,86.818161 139.903366,83.718544 128.711487,92.019669 
	C128.291321,92.123871 128.133026,92.199814 127.787605,91.913544 
	C127.460915,91.027817 127.321320,90.504311 127.341110,89.541435 
	C127.682426,82.743538 127.864357,76.385002 128.046280,70.026474 
	C128.046280,70.026474 128.004837,69.996002 128.278519,69.962593 
	C128.760040,69.655365 128.967880,69.381538 129.175720,69.107712 
	C129.175720,69.107719 129.078598,69.069702 129.405014,69.043976 
	C130.535645,68.366501 131.339874,67.714752 132.144089,67.062996 
	C132.309692,67.039185 132.475311,67.015381 133.049561,66.821915 
	C133.730530,66.510841 133.907913,66.292320 133.990356,65.996712 
	C133.990356,65.996712 133.999405,66.000916 134.295898,65.990845 
	C135.068695,65.657623 135.545013,65.334465 136.021347,65.011307 
	C137.127930,64.676003 138.234497,64.340683 140.033386,63.864029 
	C142.658875,63.200363 144.592026,62.678040 146.525192,62.155708 
	C150.212891,62.201565 153.900574,62.247425 158.327332,62.480255 
	C161.378159,63.081562 163.689941,63.495892 166.001709,63.910225 
	C167.030746,64.301712 168.059784,64.693199 169.630341,65.333145 
	C170.782043,65.712502 171.392227,65.843407 172.002411,65.974304 
	C172.002411,65.974304 172.010040,66.008476 172.206818,66.220383 
	C172.937943,66.607391 173.472305,66.782494 174.006668,66.957603 
	C174.006668,66.957603 174.013840,67.009109 174.227417,67.252686 
	C175.916367,68.390266 177.391724,69.284279 178.867081,70.178291 
	C178.867081,70.178291 178.913879,70.073807 178.958130,70.352791 
	C179.319016,70.787170 179.635635,70.942574 179.952271,71.097977 
	C179.952271,71.097977 179.974762,71.019066 180.024597,71.286057 
	C180.379501,71.709282 180.684570,71.865517 180.989639,72.021759 
	C180.989639,72.021759 181.000244,71.998657 181.064194,72.251213 
	C181.422211,72.661102 181.716278,72.818443 182.010345,72.975777 
	C182.010345,72.975777 181.998779,73.001137 182.076111,73.243637 
	C182.439117,73.648788 182.724762,73.811424 183.010422,73.974068 
	C183.010422,73.974068 182.998718,74.000725 183.134018,74.306374 
	C185.807114,77.789810 188.344925,80.967606 190.882721,84.145401 
	C190.882721,84.145401 190.965790,84.042320 190.953949,84.399094 
	C191.618622,85.860397 192.295151,86.964912 192.971680,88.069427 
	C192.978088,88.240845 192.984512,88.412262 193.123138,89.046707 
	C193.365234,89.846794 193.588104,90.072113 193.923935,90.185699 
	C193.923935,90.185699 193.916138,90.637596 194.027176,91.113785 
	C194.369446,91.878609 194.600677,92.167229 194.831909,92.455856 
	C194.877014,92.806374 194.922119,93.156891 195.066315,94.090851 
	C195.687714,96.149582 196.209991,97.624870 196.732300,99.100166 
	C196.774704,99.537262 196.817123,99.974358 196.584686,101.023010 
	C197.128204,109.752205 197.946609,117.869843 198.764999,125.987473 
	C198.753860,126.753937 198.742722,127.520401 198.246674,128.794983 
	C197.603455,131.433380 197.445145,133.563675 197.286835,135.693970 
z"/>
<path fill="#063096" opacity="1.000000" stroke="none" 
	d="
M96.003838,21.861019 
	C101.693344,21.915014 107.382843,21.969007 113.956924,22.033218 
	C116.560890,21.988396 118.280281,21.933355 119.999672,21.878315 
	C120.376991,21.965103 120.754303,22.051889 121.450394,22.577597 
	C121.866341,25.677383 121.963501,28.338249 122.060669,30.999117 
	C122.003075,42.358154 121.945480,53.717190 121.874352,65.989304 
	C121.923492,70.600861 121.986168,74.299355 121.961601,78.445541 
	C121.933136,81.929642 121.991913,84.966026 121.953186,88.370903 
	C121.922806,89.492546 121.989929,90.245712 121.972000,91.330566 
	C121.945343,92.110909 122.003738,92.559570 121.963196,93.400009 
	C121.928490,94.861275 121.992722,95.930748 121.972168,97.462227 
	C121.946365,113.617943 122.005356,129.311661 121.980347,145.252304 
	C121.952225,145.663910 122.008102,145.828583 121.975906,146.388916 
	C121.947533,147.858994 122.007240,148.933395 121.968307,150.335327 
	C121.933960,151.109161 121.998245,151.555435 121.976379,152.462387 
	C121.949615,158.284851 122.008995,163.646652 121.969376,169.333618 
	C121.935310,170.102325 122.000244,170.545898 121.979935,171.321625 
	C121.960220,172.102570 122.025757,172.551346 122.091293,173.000107 
	C122.023529,174.071564 121.955757,175.143005 121.895020,176.831635 
	C121.902054,177.448792 121.957466,177.926163 121.957466,177.926178 
	C121.220856,178.129013 120.484238,178.331848 118.940445,178.519638 
	C109.441498,178.298874 100.749733,178.093170 92.057968,177.887466 
	C92.080925,126.563156 92.103882,75.238846 92.169304,23.255039 
	C92.211769,22.595547 92.287788,22.139826 92.287788,22.139826 
	C92.287788,22.139826 92.679230,22.148750 93.215591,22.100462 
	C94.502586,21.988455 95.253212,21.924738 96.003838,21.861019 
z"/>
<path fill="#2260D3" opacity="1.000000" stroke="none" 
	d="
M47.282001,175.907196 
	C47.249508,138.279480 47.217014,100.651779 47.539268,62.495300 
	C48.282375,61.534393 48.670727,61.102261 49.059082,60.670128 
	C56.040813,60.646763 63.022545,60.623398 70.694572,60.955101 
	C73.169464,61.573864 74.954056,61.837559 76.738655,62.101254 
	C76.766342,100.058266 76.794029,138.015274 76.368034,176.482788 
	C69.177757,177.295135 62.440060,177.823273 55.705070,177.790771 
	C52.894413,177.777206 50.089516,176.571075 47.282001,175.907196 
z"/>
<path fill="#2B92FB" opacity="1.000000" stroke="none" 
	d="
M3.125185,152.000000 
	C3.125240,133.545166 3.125240,115.590340 3.125240,97.243027 
	C13.078928,97.243027 22.626198,97.243027 32.526924,97.243027 
	C32.526924,124.002007 32.526924,150.719147 32.526924,177.859558 
	C22.939362,177.859558 13.399623,177.859558 3.125129,177.859558 
	C3.125129,169.368027 3.125129,160.934006 3.125185,152.000000 
z"/>
<path fill="#FDFFFF" opacity="1.000000" stroke="none" 
	d="
M122.068375,169.008453 
	C122.008995,163.646652 121.949615,158.284851 122.211281,152.462280 
	C122.532333,152.001526 123.002136,151.999390 123.362709,152.036926 
	C125.126091,152.383347 126.528908,152.692261 127.931717,153.001175 
	C128.006165,159.326797 128.080597,165.652420 128.154877,172.439117 
	C126.421539,172.933533 124.688362,172.966858 122.523239,173.000137 
	C122.025757,172.551346 121.960220,172.102570 122.195175,171.174866 
	C122.353233,170.133423 122.210800,169.570938 122.068375,169.008453 
z"/>
<path fill="#EFF7FC" opacity="1.000000" stroke="none" 
	d="
M122.048843,77.997849 
	C121.986168,74.299355 121.923492,70.600861 121.960815,66.451019 
	C122.817657,66.862877 123.473000,67.854942 124.359627,68.553383 
	C125.262222,69.264389 126.392532,69.686333 127.734711,70.130661 
	C127.864357,76.385002 127.682426,82.743538 127.067596,89.418861 
	C126.310501,88.395462 125.698685,87.050613 125.720284,85.716011 
	C125.769554,82.670494 126.129074,79.629990 126.415833,75.893288 
	C124.056969,77.030083 123.052910,77.513962 122.048843,77.997849 
z"/>
<path fill="#EFF7FC" opacity="1.000000" stroke="none" 
	d="
M92.068420,178.264557 
	C100.749733,178.093170 109.441498,178.298874 118.580780,178.655472 
	C116.889061,179.118469 114.759277,179.557373 112.608727,179.717773 
	C107.186134,180.122223 101.756065,180.558121 96.324707,180.623169 
	C94.917534,180.639999 93.494576,179.337921 92.068420,178.264557 
z"/>
<path fill="#5C85D4" opacity="1.000000" stroke="none" 
	d="
M47.180279,176.309250 
	C50.089516,176.571075 52.894413,177.777206 55.705070,177.790771 
	C62.440060,177.823273 69.177757,177.295135 76.313873,176.941162 
	C75.836380,177.529388 74.969292,178.709335 74.080803,178.725693 
	C66.138817,178.871765 58.191353,178.891556 50.250404,178.720718 
	C49.179211,178.697678 48.135170,177.412216 47.180279,176.309250 
z"/>
<path fill="#EFF7FC" opacity="1.000000" stroke="none" 
	d="
M190.131439,156.832214 
	C191.954697,151.598267 194.142838,146.370270 196.592163,140.878876 
	C198.268661,147.407990 193.575195,151.806732 190.131439,156.832214 
z"/>
<path fill="#1E3C87" opacity="1.000000" stroke="none" 
	d="
M198.873657,125.532898 
	C197.946609,117.869843 197.128204,109.752205 196.559387,101.352341 
	C196.808975,101.070107 196.965378,100.953163 197.020355,101.299660 
	C197.326309,102.271164 197.577286,102.896172 197.828262,103.521179 
	C197.896515,104.459816 197.964767,105.398460 198.085175,107.010956 
	C198.401993,108.513809 198.666672,109.342804 198.931351,110.171799 
	C198.948334,115.140640 198.965332,120.109482 198.873657,125.532898 
z"/>
<path fill="#EFF7FC" opacity="1.000000" stroke="none" 
	d="
M190.921814,83.741608 
	C188.344925,80.967606 185.807114,77.789810 183.146820,74.299538 
	C187.701584,74.417870 190.199982,77.361427 190.921814,83.741608 
z"/>
<path fill="#EFF7FC" opacity="1.000000" stroke="none" 
	d="
M156.276291,180.285278 
	C159.417404,179.065018 162.834152,178.133041 166.631287,177.192932 
	C165.063751,183.063614 160.456360,180.733719 156.276291,180.285278 
z"/>
<path fill="#EFF7FC" opacity="1.000000" stroke="none" 
	d="
M168.325592,176.987457 
	C171.686401,174.632614 175.454987,172.298721 179.549896,169.841980 
	C178.164001,175.209351 173.634521,176.392960 168.325592,176.987457 
z"/>
<path fill="#EFF7FC" opacity="1.000000" stroke="none" 
	d="
M122.443253,30.907589 
	C121.963501,28.338249 121.866341,25.677383 121.741463,22.576519 
	C126.039780,24.522913 124.075027,27.715332 122.443253,30.907589 
z"/>
<path fill="#EFF7FC" opacity="1.000000" stroke="none" 
	d="
M165.951080,63.545135 
	C163.689941,63.495892 161.378159,63.081562 158.745850,62.420639 
	C160.964676,62.155304 163.933716,58.943897 165.951080,63.545135 
z"/>
<path fill="#5C85D4" opacity="1.000000" stroke="none" 
	d="
M76.788422,61.743210 
	C74.954056,61.837559 73.169464,61.573864 71.156769,60.999813 
	C72.898514,60.921360 74.868355,61.153259 76.788422,61.743210 
z"/>
<path fill="#EFF7FC" opacity="1.000000" stroke="none" 
	d="
M119.917068,21.523249 
	C118.280281,21.933355 116.560890,21.988396 114.419121,21.956509 
	C115.590271,18.702885 117.678070,19.650032 119.917068,21.523249 
z"/>
<path fill="#EFF7FC" opacity="1.000000" stroke="none" 
	d="
M146.133362,62.083824 
	C144.592026,62.678040 142.658875,63.200363 140.353668,63.722031 
	C140.857529,59.633621 143.506622,61.520588 146.133362,62.083824 
z"/>
<path fill="#EFF7FC" opacity="1.000000" stroke="none" 
	d="
M197.027664,98.917557 
	C196.209991,97.624870 195.687714,96.149582 195.183533,94.331207 
	C195.908783,95.570412 196.615906,97.152687 197.027664,98.917557 
z"/>
<path fill="#EFF7FC" opacity="1.000000" stroke="none" 
	d="
M178.870789,69.801422 
	C177.391724,69.284279 175.916367,68.390266 174.248184,67.237015 
	C175.661743,67.793373 177.268127,68.608955 178.870789,69.801422 
z"/>
<path fill="#1E3C87" opacity="1.000000" stroke="none" 
	d="
M197.546173,135.401337 
	C197.445145,133.563675 197.603455,131.433380 198.106567,129.153839 
	C198.520706,129.371002 198.590042,129.737442 198.727554,130.380249 
	C198.465652,132.140671 198.135590,133.624695 197.546173,135.401337 
z"/>
<path fill="#EFF7FC" opacity="1.000000" stroke="none" 
	d="
M95.945770,21.539291 
	C95.253212,21.924738 94.502586,21.988455 93.378250,21.991508 
	C93.965584,21.693083 94.926643,21.455322 95.945770,21.539291 
z"/>
<path fill="#EFF7FC" opacity="1.000000" stroke="none" 
	d="
M130.160034,175.163361 
	C131.276764,175.373001 132.398621,175.952179 133.717117,176.780182 
	C132.664215,176.530319 131.414673,176.031616 130.160034,175.163361 
z"/>
<path fill="#EFF7FC" opacity="1.000000" stroke="none" 
	d="
M148.054184,180.463684 
	C148.751831,180.104248 149.506180,180.061569 150.632233,180.094788 
	C150.039597,180.373947 149.075241,180.577209 148.054184,180.463684 
z"/>
<path fill="#EFF7FC" opacity="1.000000" stroke="none" 
	d="
M192.988632,87.681427 
	C192.295151,86.964912 191.618622,85.860397 190.895020,84.429245 
	C191.567154,85.166222 192.286377,86.229828 192.988632,87.681427 
z"/>
<path fill="#EFF7FC" opacity="1.000000" stroke="none" 
	d="
M131.769699,67.045006 
	C131.339874,67.714752 130.535645,68.366501 129.423904,69.092590 
	C129.876022,68.453621 130.635666,67.740318 131.769699,67.045006 
z"/>
<path fill="#5C85D4" opacity="1.000000" stroke="none" 
	d="
M48.834488,60.512737 
	C48.670727,61.102261 48.282375,61.534393 47.601799,62.037834 
	C47.743015,61.524544 48.176453,60.939945 48.834488,60.512737 
z"/>
<path fill="#FDFFFF" opacity="1.000000" stroke="none" 
	d="
M122.112701,178.153534 
	C121.957466,177.926163 121.902054,177.448792 121.990143,177.225250 
	C122.551552,177.446228 123.024879,177.890762 123.498215,178.335281 
	C123.088120,178.350494 122.678032,178.365692 122.112701,178.153534 
z"/>
<path fill="#EFF7FC" opacity="1.000000" stroke="none" 
	d="
M198.968338,109.832291 
	C198.666672,109.342804 198.401993,108.513809 198.181854,107.352287 
	C198.486038,107.844101 198.745682,108.668434 198.968338,109.832291 
z"/>
<path fill="#EFF7FC" opacity="1.000000" stroke="none" 
	d="
M135.719147,65.013397 
	C135.545013,65.334465 135.068695,65.657623 134.295639,65.986771 
	C134.471573,65.667007 134.944244,65.341248 135.719147,65.013397 
z"/>
<path fill="#EFF7FC" opacity="1.000000" stroke="none" 
	d="
M173.840363,66.716743 
	C173.472305,66.782494 172.937943,66.607391 172.220123,66.208969 
	C172.582474,66.149063 173.128250,66.312477 173.840363,66.716743 
z"/>
<path fill="#EFF7FC" opacity="1.000000" stroke="none" 
	d="
M171.803497,65.719933 
	C171.392227,65.843407 170.782043,65.712502 169.964310,65.340942 
	C170.372696,65.222038 170.988632,65.343796 171.803497,65.719933 
z"/>
<path fill="#EFF7FC" opacity="1.000000" stroke="none" 
	d="
M137.214539,178.416901 
	C137.589462,178.296906 138.159592,178.400070 138.925262,178.726288 
	C138.550461,178.846237 137.980087,178.743149 137.214539,178.416901 
z"/>
<path fill="#EFF7FC" opacity="1.000000" stroke="none" 
	d="
M197.873566,103.171356 
	C197.577286,102.896172 197.326309,102.271164 197.117981,101.301651 
	C197.413391,101.578613 197.666138,102.200081 197.873566,103.171356 
z"/>
<path fill="#EFF7FC" opacity="1.000000" stroke="none" 
	d="
M140.274658,179.375519 
	C140.721375,179.169907 141.430115,179.215988 142.409653,179.500748 
	C141.965866,179.702026 141.251282,179.664627 140.274658,179.375519 
z"/>
<path fill="#EFF7FC" opacity="1.000000" stroke="none" 
	d="
M186.188354,162.831879 
	C186.077530,162.622955 186.215637,162.273926 186.610931,161.795319 
	C186.724487,162.007736 186.580887,162.349762 186.188354,162.831879 
z"/>
<path fill="#EFF7FC" opacity="1.000000" stroke="none" 
	d="
M185.313950,163.905350 
	C185.233963,163.728394 185.365067,163.429779 185.730499,163.033417 
	C185.931519,163.277115 185.784912,163.559784 185.313950,163.905350 
z"/>
<path fill="#EFF7FC" opacity="1.000000" stroke="none" 
	d="
M187.408096,160.861755 
	C187.133514,160.628876 187.240540,160.343582 187.749664,160.021164 
	C187.956192,160.238159 187.835510,160.513260 187.408096,160.861755 
z"/>
<path fill="#EFF7FC" opacity="1.000000" stroke="none" 
	d="
M92.089973,22.147762 
	C92.287788,22.139826 92.211769,22.595547 92.089600,22.791424 
	C91.835678,22.784546 91.696518,22.585560 91.587212,22.371346 
	C91.579109,22.355465 91.785492,22.230145 92.089973,22.147762 
z"/>
<path fill="#EFF7FC" opacity="1.000000" stroke="none" 
	d="
M128.180176,173.087143 
	C128.394089,173.028214 128.672745,173.230743 129.028183,173.689697 
	C128.818283,173.746933 128.531601,173.547760 128.180176,173.087143 
z"/>
<path fill="#EFF7FC" opacity="1.000000" stroke="none" 
	d="
M129.158676,174.147125 
	C129.371811,174.048157 129.691940,174.198837 130.113312,174.601562 
	C129.898270,174.701340 129.581970,174.549072 129.158676,174.147125 
z"/>
<path fill="#EFF7FC" opacity="1.000000" stroke="none" 
	d="
M133.787827,66.039978 
	C133.907913,66.292320 133.730530,66.510841 133.242416,66.661316 
	C133.131119,66.396873 133.317337,66.201164 133.787827,66.039978 
z"/>
<path fill="#EFF7FC" opacity="1.000000" stroke="none" 
	d="
M188.567642,158.864227 
	C188.369858,158.676926 188.464111,158.446762 188.865295,158.185791 
	C189.017136,158.361115 188.912964,158.583252 188.567642,158.864227 
z"/>
<path fill="#EFF7FC" opacity="1.000000" stroke="none" 
	d="
M189.287384,157.878143 
	C189.160538,157.686493 189.249512,157.348083 189.580841,156.888840 
	C189.716522,157.089142 189.609863,157.410248 189.287384,157.878143 
z"/>
<path fill="#EFF7FC" opacity="1.000000" stroke="none" 
	d="
M128.918976,69.168892 
	C128.967880,69.381538 128.760040,69.655365 128.289993,69.985435 
	C128.239273,69.771149 128.450760,69.500610 128.918976,69.168892 
z"/>
<path fill="#EFF7FC" opacity="1.000000" stroke="none" 
	d="
M179.847672,70.849121 
	C179.635635,70.942574 179.319016,70.787170 178.906219,70.376907 
	C179.121063,70.281456 179.432068,70.440857 179.847672,70.849121 
z"/>
<path fill="#EFF7FC" opacity="1.000000" stroke="none" 
	d="
M180.882233,71.787338 
	C180.684570,71.865517 180.379501,71.709282 179.987076,71.302643 
	C180.191422,71.219139 180.483139,71.386032 180.882233,71.787338 
z"/>
<path fill="#EFF7FC" opacity="1.000000" stroke="none" 
	d="
M181.905182,72.751740 
	C181.716278,72.818443 181.422211,72.661102 181.052933,72.257401 
	C181.319244,72.075981 181.593338,72.248207 181.905182,72.751740 
z"/>
<path fill="#EFF7FC" opacity="1.000000" stroke="none" 
	d="
M182.911163,73.752228 
	C182.724762,73.811424 182.439117,73.648788 182.088776,73.237823 
	C182.353317,73.072807 182.615921,73.253098 182.911163,73.752228 
z"/>
<path fill="#EFF7FC" opacity="1.000000" stroke="none" 
	d="
M193.899200,89.950638 
	C193.588104,90.072113 193.365234,89.846794 193.259857,89.264687 
	C193.563736,89.167488 193.767090,89.399467 193.899200,89.950638 
z"/>
<path fill="#EFF7FC" opacity="1.000000" stroke="none" 
	d="
M194.828781,92.174194 
	C194.600677,92.167229 194.369446,91.878609 194.152237,91.302002 
	C194.386047,91.306862 194.605850,91.599701 194.828781,92.174194 
z"/>
<path fill="#FDFEFE" opacity="1.000000" stroke="none" 
	d="
M121.961601,78.445549 
	C123.052910,77.513962 124.056969,77.030083 126.415833,75.893288 
	C126.129074,79.629990 125.769554,82.670494 125.720284,85.716011 
	C125.698685,87.050613 126.310501,88.395462 126.908211,89.858231 
	C127.321320,90.504311 127.460915,91.027817 127.917145,92.043579 
	C128.480301,92.354362 128.726822,92.172890 128.973343,91.991425 
	C139.903366,83.718544 156.603256,86.818161 163.274780,98.358002 
	C170.971359,111.670898 169.650253,134.399979 159.975586,146.899078 
	C159.226151,147.397583 159.064011,147.657425 158.994141,147.974869 
	C158.994141,147.974869 159.002258,148.002701 158.766602,148.098724 
	C158.253845,148.392609 158.076538,148.657333 157.999023,148.988922 
	C157.999023,148.988922 158.001221,149.001221 157.773727,149.088104 
	C157.268097,149.354706 157.075729,149.601318 156.969131,149.914841 
	C156.969131,149.914841 156.969162,149.989166 156.742767,150.043579 
	C156.267776,150.239410 156.103287,150.447357 156.022919,150.721832 
	C156.022919,150.721832 155.764084,151.062485 155.168976,151.064514 
	C153.047485,152.011627 151.521118,152.956711 149.994736,153.901794 
	C149.746780,154.119141 149.460251,154.255295 148.590179,154.248062 
	C147.701645,154.385620 147.358078,154.585358 147.014511,154.785095 
	C146.566238,154.863785 146.117966,154.942474 145.238068,154.806763 
	C144.538025,154.707230 144.269592,154.822098 144.001160,154.936966 
	C143.552856,154.999969 143.104553,155.062973 142.038605,154.757050 
	C140.071472,154.322281 138.722000,154.256454 137.372528,154.190628 
	C137.372528,154.190628 137.153122,154.266235 137.035706,153.812439 
	C134.263321,152.256958 131.608337,151.155273 128.953369,150.053604 
	C128.676804,150.820938 128.400253,151.588257 128.027710,152.678375 
	C126.528908,152.692261 125.126091,152.383347 123.343956,151.744934 
	C122.665398,150.946213 122.366173,150.477005 122.066940,150.007782 
	C122.007240,148.933395 121.947533,147.858994 122.136246,146.301331 
	C122.277885,145.547165 122.171120,145.276276 122.064346,145.005371 
	C122.005356,129.311661 121.946365,113.617943 122.296249,97.411896 
	C122.490799,95.602448 122.276474,94.305336 122.062149,93.008224 
	C122.003738,92.559570 121.945343,92.110909 122.299789,91.278374 
	C122.491989,89.930466 122.271339,88.966446 122.050690,88.002419 
	C121.991913,84.966026 121.933136,81.929642 121.961601,78.445549 
z"/>
<path fill="#EFF7FC" opacity="1.000000" stroke="none" 
	d="
M129.135193,150.340820 
	C131.608337,151.155273 134.263321,152.256958 136.953430,153.730621 
	C134.431381,152.944427 131.874207,151.786240 129.135193,150.340820 
z"/>
<path fill="#EFF7FC" opacity="1.000000" stroke="none" 
	d="
M150.340942,153.921844 
	C151.521118,152.956711 153.047485,152.011627 154.958557,151.102997 
	C153.791214,152.073593 152.239166,153.007751 150.340942,153.921844 
z"/>
<path fill="#EFF7FC" opacity="1.000000" stroke="none" 
	d="
M137.681915,154.457886 
	C138.722000,154.256454 140.071472,154.322281 141.707672,154.669464 
	C140.660034,154.875565 139.325668,154.800354 137.681915,154.457886 
z"/>
<path fill="#EFF7FC" opacity="1.000000" stroke="none" 
	d="
M128.711487,92.019669 
	C128.726822,92.172890 128.480301,92.354362 128.104248,92.405792 
	C128.133026,92.199814 128.291321,92.123871 128.711487,92.019669 
z"/>
<path fill="#EFF7FC" opacity="1.000000" stroke="none" 
	d="
M147.324295,154.826630 
	C147.358078,154.585358 147.701645,154.385620 148.352081,154.214996 
	C148.317322,154.452118 147.975693,154.660141 147.324295,154.826630 
z"/>
<path fill="#EFF7FC" opacity="1.000000" stroke="none" 
	d="
M144.251907,155.018707 
	C144.269592,154.822098 144.538025,154.707230 144.899399,154.748413 
	C144.829117,154.969757 144.665878,155.035095 144.251907,155.018707 
z"/>
<path fill="#EFF7FC" opacity="1.000000" stroke="none" 
	d="
M156.238525,150.699570 
	C156.103287,150.447357 156.267776,150.239410 156.707916,150.030670 
	C156.870148,150.275635 156.721695,150.513626 156.238525,150.699570 
z"/>
<path fill="#EFF7FC" opacity="1.000000" stroke="none" 
	d="
M157.222946,149.877243 
	C157.075729,149.601318 157.268097,149.354706 157.767517,149.087051 
	C157.818115,149.279297 157.647446,149.559479 157.222946,149.877243 
z"/>
<path fill="#EFF7FC" opacity="1.000000" stroke="none" 
	d="
M158.246475,148.924423 
	C158.076538,148.657333 158.253845,148.392609 158.752625,148.094742 
	C158.814178,148.283142 158.654053,148.571533 158.246475,148.924423 
z"/>
<path fill="#EFF7FC" opacity="1.000000" stroke="none" 
	d="
M159.238251,147.910461 
	C159.064011,147.657425 159.226151,147.397583 159.685883,147.084213 
	C159.754913,147.264099 159.618637,147.555084 159.238251,147.910461 
z"/>
<path fill="#EFF7FC" opacity="1.000000" stroke="none" 
	d="
M121.963203,93.400009 
	C122.276474,94.305336 122.490799,95.602448 122.381042,96.949890 
	C121.992722,95.930748 121.928490,94.861275 121.963203,93.400009 
z"/>
<path fill="#EFF7FC" opacity="1.000000" stroke="none" 
	d="
M121.953186,88.370903 
	C122.271339,88.966446 122.491989,89.930466 122.384842,90.946686 
	C121.989929,90.245712 121.922806,89.492546 121.953186,88.370903 
z"/>
<path fill="#EFF7FC" opacity="1.000000" stroke="none" 
	d="
M121.969368,169.333618 
	C122.210800,169.570938 122.353233,170.133423 122.280418,170.842682 
	C122.000244,170.545898 121.935310,170.102325 121.969368,169.333618 
z"/>
<path fill="#EFF7FC" opacity="1.000000" stroke="none" 
	d="
M121.968307,150.335327 
	C122.366173,150.477005 122.665398,150.946213 122.983383,151.707413 
	C123.002136,151.999390 122.532333,152.001526 122.297440,152.001617 
	C121.998245,151.555435 121.933960,151.109161 121.968307,150.335327 
z"/>
<path fill="#EFF7FC" opacity="1.000000" stroke="none" 
	d="
M121.980347,145.252304 
	C122.171120,145.276276 122.277885,145.547165 122.224312,145.905655 
	C122.008102,145.828583 121.952225,145.663910 121.980347,145.252304 
z"/>
</svg>
