<svg version="1.1" id="Layer_1" xmlns="http://www.w3.org/2000/svg" xmlns:xlink="http://www.w3.org/1999/xlink" x="0px" y="0px"
	 width="100%" viewBox="0 0 496 496" enable-background="new 0 0 496 496" xml:space="preserve">
<path fill="#000000" opacity="1.000000" stroke="none" 
	d="
M497.000000,154.000000 
	C497.000000,268.333344 497.000000,382.666687 497.000000,497.000000 
	C490.589417,497.000000 484.263763,497.000000 477.444336,496.748169 
	C474.623016,493.549438 472.788483,489.842377 469.096039,488.559448 
	C458.181854,484.767303 447.319427,484.721832 437.011841,490.620605 
	C434.797760,491.887665 432.747864,493.815948 434.000000,497.000000 
	C331.979095,497.000000 229.958206,497.000000 127.573959,496.804993 
	C128.001831,495.037384 126.633224,494.628998 125.778099,493.928284 
	C117.230530,486.923981 107.454712,482.319122 97.325851,477.959229 
	C84.894928,472.608490 72.927757,470.540649 59.650848,474.728668 
	C48.861759,478.131927 37.474396,479.352264 26.117788,477.405853 
	C19.675257,476.301666 13.278019,476.175812 6.776766,476.214508 
	C3.504145,476.234009 1.894400,477.146362 1.000000,480.000000 
	C1.000000,351.312439 1.000000,222.624878 1.207219,93.660774 
	C2.264413,94.572021 3.318243,94.963448 4.848715,94.819092 
	C7.805289,94.540207 10.377501,95.907555 12.713999,97.491646 
	C20.051682,102.466408 24.174435,101.788651 29.330292,94.569115 
	C34.189449,87.765030 40.157310,85.957970 47.945286,89.043869 
	C51.207943,90.336655 54.212120,92.112267 56.996250,94.282028 
	C59.226254,96.019920 61.476746,97.773247 63.899857,99.214142 
	C72.533585,104.348160 84.232651,104.148064 90.039841,98.016289 
	C97.049309,90.615021 103.219345,82.502411 104.400902,71.756203 
	C104.707748,68.965370 104.751350,65.931328 106.508255,63.607475 
	C115.409294,51.834106 124.855858,40.723389 140.005676,36.639771 
	C158.830200,31.565641 177.164703,24.974749 195.501663,18.407375 
	C197.287247,17.767868 199.462204,17.528599 200.560043,14.854612 
	C196.611969,12.371392 190.070267,12.737993 189.376938,6.326096 
	C191.372803,3.861393 194.585144,4.546279 196.843765,2.550647 
	C195.080154,1.986060 193.540085,1.493031 192.000000,1.000001 
	C235.354233,1.000000 278.708466,1.000000 322.346893,1.164328 
	C321.488159,2.167765 321.046082,3.048970 322.411743,4.100604 
	C325.737122,6.661400 325.272552,9.675745 323.640015,12.998679 
	C321.131042,18.105577 321.901367,20.046663 327.352020,21.997314 
	C339.563629,26.367531 351.336182,31.968880 364.156830,34.647064 
	C370.106781,35.889984 375.602661,38.689926 379.590088,43.353683 
	C383.853333,48.340012 388.671509,52.597347 393.779510,56.634918 
	C397.983124,59.957653 402.361877,63.540203 403.779358,68.831871 
	C408.006500,84.612267 419.444061,95.920273 429.099670,107.851082 
	C437.909882,118.737221 446.476685,130.708115 459.628632,137.540817 
	C461.310730,138.414688 462.474121,140.298645 463.857208,141.734497 
	C471.954437,150.140701 480.576355,157.237045 493.512024,154.028534 
	C494.609528,153.756332 495.834320,153.997391 497.000000,154.000000 
M174.869278,225.740463 
	C187.147522,185.794662 231.867447,170.281067 265.718445,189.272339 
	C277.908447,196.111267 286.599396,206.107895 292.303528,218.831558 
	C295.113434,225.099243 297.528992,226.176086 304.085724,224.474823 
	C309.397217,223.096634 314.709686,221.707748 319.967896,220.142715 
	C326.141663,218.305130 327.119659,216.251083 325.025543,210.256195 
	C310.441772,168.506882 264.036774,141.371704 220.444046,148.544037 
	C166.642303,157.396057 130.636795,207.680801 140.237000,261.314301 
	C147.930893,304.297852 188.150345,339.112579 232.137711,339.585541 
	C259.769379,339.882690 283.686798,330.546753 303.241913,310.837158 
	C305.949158,308.108521 308.148285,307.768524 311.544128,309.167938 
	C320.778351,312.973328 330.152405,316.438873 339.465851,320.052551 
	C355.297974,326.195465 371.103088,332.408905 386.966522,338.469788 
	C393.939117,341.133789 396.988739,339.622314 399.678741,332.642761 
	C401.355225,328.292938 403.005432,323.932922 404.680725,319.582611 
	C407.483551,312.304504 406.498688,309.968933 399.051483,307.109253 
	C367.194641,294.876495 335.320618,282.688477 303.449463,270.492920 
	C294.754669,267.165802 293.451660,267.628143 288.536377,275.643616 
	C274.954041,297.792755 249.805939,309.382782 224.452744,305.177795 
	C188.035751,299.137817 164.680496,262.239258 174.869278,225.740463 
z"/>
</svg>
