<svg version="1.1" id="Layer_1" xmlns="http://www.w3.org/2000/svg" xmlns:xlink="http://www.w3.org/1999/xlink" x="0px" y="0px"
	 width="100%" viewBox="0 0 200 200" enable-background="new 0 0 200 200" xml:space="preserve">
<path fill="#0053FB" opacity="1.000000" stroke="none" 
	d="
M113.000000,201.000000 
	C75.356575,201.000000 38.213150,201.000000 1.034861,201.000000 
	C1.034861,134.398285 1.034861,67.796532 1.034861,1.097392 
	C67.559921,1.097392 134.120041,1.097392 200.840073,1.097392 
	C200.840073,67.666359 200.840073,134.333145 200.840073,201.000000 
	C171.796814,201.000000 142.648407,201.000000 113.000000,201.000000 
M66.139023,122.189529 
	C66.139023,122.189529 66.151627,122.407318 65.725716,122.660912 
	C65.555672,123.105873 65.385635,123.550827 64.933334,124.330460 
	C64.933334,124.330460 64.843918,124.759026 64.283447,125.121262 
	C63.234764,127.084297 62.186085,129.047333 60.699856,131.509705 
	C60.176678,132.475128 59.653500,133.440552 58.638725,134.827820 
	C56.462692,138.241119 56.462692,138.241119 59.831192,138.825546 
	C60.868183,138.773849 61.905174,138.722168 63.857582,138.914993 
	C68.840607,138.941833 73.823837,139.011490 78.806618,138.987961 
	C98.894852,138.893051 118.982948,138.769409 139.833008,138.809982 
	C140.864273,138.756683 141.895554,138.703384 143.574005,138.854126 
	C143.399078,137.560471 143.224152,136.266830 143.009979,134.985626 
	C143.009979,134.985626 143.038483,134.954956 143.000366,134.383331 
	C142.744995,134.117905 142.489639,133.852493 142.164673,133.242188 
	C142.164673,133.242188 141.908463,133.001083 141.869888,132.386429 
	C141.265640,131.588837 140.661392,130.791245 140.062195,129.955750 
	C140.062195,129.955750 140.026779,129.941315 140.009552,129.371429 
	C139.671310,128.932953 139.333069,128.494461 138.775055,127.384377 
	C126.225166,105.802429 113.675278,84.220482 100.696960,61.901760 
	C89.056252,82.302238 78.018089,101.646744 66.570312,121.217850 
	C66.306061,121.451088 66.224098,121.736671 66.139023,122.189529 
z"/>
<path fill="#F8FCFE" opacity="1.000000" stroke="none" 
	d="
M66.979927,120.991249 
	C78.018089,101.646744 89.056252,82.302238 100.696960,61.901760 
	C113.675278,84.220482 126.225166,105.802429 138.896515,128.003647 
	C139.354248,129.062378 139.690506,129.501846 140.026779,129.941315 
	C140.026779,129.941315 140.062195,129.955750 140.045197,130.301270 
	C140.654938,131.431549 141.281708,132.216309 141.908463,133.001083 
	C141.908463,133.001083 142.164673,133.242188 142.244888,133.686722 
	C142.562897,134.405823 142.800690,134.680389 143.038483,134.954956 
	C143.038483,134.954956 143.009979,134.985626 142.997437,135.345734 
	C142.965546,136.687241 142.946182,137.668671 142.926819,138.650085 
	C141.895554,138.703384 140.864273,138.756683 139.514709,138.498734 
	C139.145187,137.440659 139.093964,136.693817 139.012985,135.704453 
	C138.983231,135.461914 138.738586,135.038864 138.630249,134.849731 
	C138.300369,134.437637 138.032928,134.340164 137.763397,134.296555 
	C137.807205,134.224915 137.682297,134.337173 137.538391,134.059448 
	C136.638718,133.497345 135.882950,133.212967 135.094376,132.942154 
	C135.061569,132.955719 135.039154,132.888351 134.869415,132.690247 
	C134.376068,132.388550 134.052460,132.284958 133.395859,132.085419 
	C123.610237,126.852592 114.096275,121.823631 104.743843,116.510353 
	C102.081673,114.997925 100.116608,115.100342 97.483475,116.559052 
	C87.356468,122.169289 77.080559,127.510735 66.585007,132.959686 
	C65.888519,133.293671 65.467209,133.620392 64.841309,134.142487 
	C64.147476,134.604675 63.658218,134.871490 62.919895,135.264069 
	C62.761276,136.483398 62.851723,137.576950 62.942165,138.670486 
	C61.905174,138.722168 60.868183,138.773849 59.450089,138.390930 
	C59.089432,136.772858 59.109875,135.589417 59.130318,134.405975 
	C59.653500,133.440552 60.176678,132.475128 61.212360,131.094360 
	C62.764549,128.705688 63.804234,126.732353 64.843918,124.759026 
	C64.843918,124.759026 64.933334,124.330460 65.289604,124.040634 
	C65.814461,123.302971 65.983040,122.855148 66.151627,122.407318 
	C66.151627,122.407318 66.139023,122.189529 66.423111,122.010643 
	C66.925461,121.592911 67.016373,121.312744 66.979927,120.991249 
z"/>
<path fill="#C8E3FF" opacity="1.000000" stroke="none" 
	d="
M139.042740,135.946991 
	C139.093964,136.693817 139.145187,137.440659 139.133743,138.421936 
	C118.982948,138.769409 98.894852,138.893051 78.806618,138.987961 
	C73.823837,139.011490 68.840607,138.941833 63.399872,138.792740 
	C62.851723,137.576950 62.761276,136.483398 63.230736,135.526367 
	C65.442276,135.761017 67.093857,135.943497 68.745560,135.944565 
	C92.177940,135.959793 115.610344,135.950409 139.042740,135.946991 
z"/>
<path fill="#C8E3FF" opacity="1.000000" stroke="none" 
	d="
M64.563683,124.940140 
	C63.804234,126.732353 62.764549,128.705688 61.431137,130.844696 
	C62.186085,129.047333 63.234764,127.084297 64.563683,124.940140 
z"/>
<path fill="#C8E3FF" opacity="1.000000" stroke="none" 
	d="
M58.884521,134.616898 
	C59.109875,135.589417 59.089432,136.772858 59.067139,138.313049 
	C56.462692,138.241119 56.462692,138.241119 58.884521,134.616898 
z"/>
<path fill="#C8E3FF" opacity="1.000000" stroke="none" 
	d="
M143.250412,138.752106 
	C142.946182,137.668671 142.965546,136.687241 143.017059,135.339508 
	C143.224152,136.266830 143.399078,137.560471 143.250412,138.752106 
z"/>
<path fill="#C8E3FF" opacity="1.000000" stroke="none" 
	d="
M141.889175,132.693756 
	C141.281708,132.216309 140.654938,131.431549 140.042664,130.320221 
	C140.661392,130.791245 141.265640,131.588837 141.889175,132.693756 
z"/>
<path fill="#C8E3FF" opacity="1.000000" stroke="none" 
	d="
M140.018158,129.656372 
	C139.690506,129.501846 139.354248,129.062378 139.006409,128.339447 
	C139.333069,128.494461 139.671310,128.932953 140.018158,129.656372 
z"/>
<path fill="#C8E3FF" opacity="1.000000" stroke="none" 
	d="
M65.938675,122.534119 
	C65.983040,122.855148 65.814461,123.302971 65.430733,123.873291 
	C65.385635,123.550827 65.555672,123.105873 65.938675,122.534119 
z"/>
<path fill="#C8E3FF" opacity="1.000000" stroke="none" 
	d="
M143.019424,134.669144 
	C142.800690,134.680389 142.562897,134.405823 142.279694,133.859161 
	C142.489639,133.852493 142.744995,134.117905 143.019424,134.669144 
z"/>
<path fill="#C8E3FF" opacity="1.000000" stroke="none" 
	d="
M66.775116,121.104553 
	C67.016373,121.312744 66.925461,121.592911 66.515816,121.953171 
	C66.224098,121.736671 66.306061,121.451088 66.775116,121.104553 
z"/>
<path fill="#0D57F1" opacity="1.000000" stroke="none" 
	d="
M139.012985,135.704453 
	C115.610344,135.950409 92.177940,135.959793 68.745560,135.944565 
	C67.093857,135.943497 65.442276,135.761017 63.479797,135.400589 
	C63.658218,134.871490 64.147476,134.604675 65.115433,134.146362 
	C66.016151,133.620697 66.438156,133.286545 66.860168,132.952408 
	C77.080559,127.510735 87.356468,122.169289 97.483475,116.559052 
	C100.116608,115.100342 102.081673,114.997925 104.743843,116.510353 
	C114.096275,121.823631 123.610237,126.852592 133.541702,132.311157 
	C134.360062,132.718033 134.699615,132.803192 135.039154,132.888351 
	C135.039154,132.888351 135.061569,132.955719 135.283661,133.178070 
	C136.231262,133.712677 136.956787,134.024933 137.682297,134.337173 
	C137.682297,134.337173 137.807205,134.224915 137.841599,134.517563 
	C137.875992,134.810211 138.273010,135.054062 138.273010,135.054062 
	C138.273010,135.054062 138.738586,135.038864 138.738586,135.038864 
	C138.738586,135.038864 138.983231,135.461914 139.012985,135.704453 
z"/>
<path fill="#C8E3FF" opacity="1.000000" stroke="none" 
	d="
M137.538391,134.059448 
	C136.956787,134.024933 136.231262,133.712677 135.316467,133.164520 
	C135.882950,133.212967 136.638718,133.497345 137.538391,134.059448 
z"/>
<path fill="#C8E3FF" opacity="1.000000" stroke="none" 
	d="
M66.584999,132.959686 
	C66.438156,133.286545 66.016151,133.620697 65.320015,133.950974 
	C65.467209,133.620392 65.888519,133.293671 66.584999,132.959686 
z"/>
<path fill="#C8E3FF" opacity="1.000000" stroke="none" 
	d="
M134.869415,132.690247 
	C134.699615,132.803192 134.360062,132.718033 133.874680,132.407104 
	C134.052460,132.284958 134.376068,132.388550 134.869415,132.690247 
z"/>
<path fill="#C8E3FF" opacity="1.000000" stroke="none" 
	d="
M138.630249,134.849731 
	C138.738586,135.038864 138.273010,135.054062 138.273010,135.054062 
	C138.273010,135.054062 137.875992,134.810211 137.797791,134.589203 
	C138.032928,134.340164 138.300369,134.437637 138.630249,134.849731 
z"/>
</svg>
