<svg version="1.1" id="Layer_1" xmlns="http://www.w3.org/2000/svg" xmlns:xlink="http://www.w3.org/1999/xlink" x="0px" y="0px"
	 width="100%" viewBox="0 0 200 200" enable-background="new 0 0 200 200" xml:space="preserve">
<path fill="#161922" opacity="1.000000" stroke="none" 
	d="
M58.000000,1.000000 
	C105.638847,1.000000 153.277695,1.000000 200.958282,1.000000 
	C200.958282,67.599930 200.958282,134.199890 200.958282,200.899933 
	C134.439087,200.899933 67.877968,200.899933 1.158428,200.899933 
	C1.158428,134.333618 1.158428,67.666855 1.158428,1.000000 
	C6.063298,1.000000 11.060452,1.000000 16.552736,1.371184 
	C18.873041,3.896187 20.494614,6.273257 22.563412,8.159931 
	C27.759912,12.898966 33.158550,17.416348 38.514519,22.392704 
	C38.622421,23.503384 38.691944,24.243969 38.692322,25.112703 
	C38.589874,25.565565 38.711948,25.804283 39.201889,26.216608 
	C41.621964,27.979980 43.829544,29.483755 46.330009,31.170773 
	C52.714901,32.802250 54.699284,38.264156 57.317928,42.838032 
	C58.830639,45.480228 59.110279,48.828384 59.550797,51.857403 
	C57.383781,52.259357 55.610859,52.662712 53.501144,53.009907 
	C52.027332,52.047794 51.015186,50.698441 49.725327,50.335175 
	C47.547249,49.721760 45.193302,49.732788 42.913311,49.481236 
	C42.927891,51.631432 42.771488,53.803669 43.044357,55.920570 
	C43.148071,56.725193 44.238792,57.402592 44.724945,58.434265 
	C43.216209,60.054264 41.333736,61.137489 40.602406,62.744560 
	C37.874599,68.738815 35.524391,74.904900 32.915298,81.320312 
	C32.809536,82.078545 32.820984,82.522980 32.689598,83.334839 
	C32.722271,88.160736 32.897781,92.619209 33.029072,97.484512 
	C35.034939,103.905411 37.085026,109.919479 39.168571,116.155754 
	C39.292599,116.675987 39.463902,116.916504 39.773476,117.466988 
	C41.867001,121.575935 43.902977,125.317406 46.049213,129.382385 
	C47.697769,131.855148 49.236065,134.004410 50.833694,136.136536 
	C50.893028,136.119415 50.861134,136.000107 50.943825,136.309921 
	C51.332634,136.912094 51.638752,137.204437 52.010311,137.668457 
	C52.228622,138.062378 52.439926,138.170746 52.807884,138.459320 
	C53.149879,139.083740 53.393650,139.414078 53.725464,140.051056 
	C55.487469,142.017151 57.161430,143.676590 59.001389,145.613434 
	C61.127338,147.541367 63.087292,149.191879 65.187180,151.100830 
	C66.095787,151.944305 66.864456,152.529312 67.783707,153.367035 
	C68.276611,153.796082 68.618935,153.972427 68.936302,154.112915 
	C68.911346,154.077042 68.839722,154.127106 68.978455,154.382599 
	C69.766312,155.033066 70.415436,155.428040 71.224319,156.047775 
	C71.851753,156.551270 72.319435,156.829971 72.945175,157.341675 
	C73.261375,157.675797 73.419518,157.776901 73.487961,157.991241 
	C73.398270,158.104477 73.208214,158.322067 73.367119,158.658569 
	C74.558182,159.567062 75.590347,160.139069 76.742195,160.731781 
	C76.861885,160.752502 77.019913,160.936996 77.132172,161.269806 
	C78.844261,162.388077 80.444099,163.173523 82.024139,163.980301 
	C82.004349,164.001633 82.031876,163.951355 82.173141,164.268372 
	C84.741814,165.605255 87.169220,166.625107 89.700394,167.618027 
	C89.804153,167.591095 89.977318,167.717514 90.251816,167.930939 
	C91.180847,168.368912 91.835388,168.593445 92.621628,168.807678 
	C92.753334,168.797379 92.985100,168.924210 93.260254,169.169250 
	C100.075996,172.176956 106.602142,174.154800 113.220734,168.869003 
	C113.974541,168.455765 114.505760,168.229874 115.169235,168.039124 
	C115.600327,168.049805 115.814941,167.900055 116.025764,167.559921 
	C116.106201,167.494858 116.306053,167.548492 116.707779,167.585663 
	C121.391830,164.701294 125.674149,161.779755 130.135147,158.638916 
	C131.079880,157.889816 131.845917,157.360001 132.921768,156.753433 
	C133.813889,156.104645 134.396210,155.532608 135.117615,154.764252 
	C135.472977,154.322357 135.732590,154.137680 136.377014,153.971893 
	C137.791199,152.908707 138.863907,151.887512 140.095306,150.625610 
	C140.859634,149.926590 141.465271,149.468307 142.258011,148.894287 
	C142.680588,148.597351 142.873474,148.378601 143.028488,148.080063 
	C143.033188,148.037811 143.117691,148.047195 143.376465,147.936340 
	C144.103134,147.261978 144.571045,146.698456 145.170715,145.902542 
	C145.587875,145.463242 145.873291,145.256302 146.407928,144.942566 
	C147.114365,144.298004 147.571564,143.760239 148.221741,142.950302 
	C149.952667,141.117294 151.490601,139.556458 153.212021,137.838333 
	C153.625580,137.450439 153.811691,137.188599 154.062683,136.693512 
	C154.359726,136.240509 154.597641,136.052429 155.227203,135.867035 
	C156.239014,134.752823 156.908936,133.698837 157.636200,132.679657 
	C157.693542,132.714478 157.623505,132.828903 157.855103,132.645020 
	C158.380081,131.962036 158.673447,131.462936 159.058640,130.752289 
	C159.313248,130.269348 159.535233,130.061035 160.116180,129.786423 
	C160.920654,128.747360 161.425369,127.837700 161.953674,126.951591 
	C161.977264,126.975143 161.910889,126.968842 162.109741,126.786003 
	C162.562119,126.133530 162.815628,125.663902 163.159058,124.957214 
	C163.459366,124.458458 163.669724,124.196762 164.173569,123.795975 
	C164.946548,122.735832 165.426010,121.814774 165.931122,120.927467 
	C165.956757,120.961220 165.879715,120.925858 166.181335,120.763206 
	C166.915009,119.582100 167.347046,118.563644 167.838043,117.385109 
	C167.897034,117.225029 168.127441,116.973358 168.295929,116.821915 
	C168.672623,116.445648 168.836487,116.192146 168.947662,115.942604 
	C168.939316,115.975235 168.876373,115.951180 169.139313,115.784142 
	C169.963379,114.081375 170.524506,112.545647 171.116455,110.730621 
	C171.407822,109.962097 171.668350,109.472870 172.231049,108.808975 
	C173.006958,107.972046 173.674713,107.375710 173.925491,106.637672 
	C178.013031,94.608871 179.339066,82.486099 175.384094,70.098953 
	C171.594315,58.229156 161.815948,49.906567 151.505768,50.174671 
	C151.334320,50.169636 151.034836,50.002312 150.805206,49.697212 
	C144.628387,47.492332 138.716583,46.571438 132.862701,50.105930 
	C132.762253,50.182705 132.510834,50.155529 132.061096,50.117458 
	C126.404259,50.138916 121.816734,51.478271 118.649139,56.449249 
	C118.025719,56.822422 117.639221,56.986370 116.916901,57.167145 
	C115.746765,57.817474 114.912453,58.450966 114.056030,59.082970 
	C114.033920,59.081474 114.058762,59.047626 113.854172,59.187897 
	C113.391823,59.543865 113.189049,59.802654 112.924622,60.316048 
	C112.405739,60.781616 112.003510,61.035664 111.230324,61.318802 
	C109.225266,62.425865 107.702209,63.782230 105.921448,64.492546 
	C104.530800,65.047256 102.820145,64.799721 101.214256,64.496674 
	C101.126045,62.707367 101.075264,61.330067 101.414444,59.945045 
	C103.687996,58.743626 105.693352,57.691208 107.364464,56.250969 
	C107.753403,55.915764 106.922577,53.339954 106.792648,53.351616 
	C104.791946,53.531132 102.814369,53.968254 100.810463,54.250343 
	C100.789513,54.155132 100.810310,53.961269 100.795090,53.657436 
	C100.475594,52.615417 100.171310,51.877232 99.692528,50.826721 
	C96.491493,45.310997 93.464951,40.107597 90.447708,34.553581 
	C90.491531,33.736599 90.526077,33.270226 90.639435,32.639492 
	C90.591942,32.023849 90.465637,31.572569 90.180214,30.820755 
	C89.564735,29.736998 89.108368,28.953777 88.643997,28.072025 
	C88.491524,27.787027 88.327362,27.765760 87.777344,27.927673 
	C86.926155,28.010233 86.441124,28.074808 85.683609,27.935642 
	C79.704773,23.741152 73.730957,20.075109 68.372780,15.661653 
	C63.696865,11.810167 58.963333,7.640397 58.000000,1.000000 
z"/>
<path fill="#512518" opacity="1.000000" stroke="none" 
	d="
M90.438416,34.904198 
	C93.464951,40.107597 96.491493,45.310997 99.736870,51.124390 
	C100.240570,52.476677 100.525444,53.218975 100.810310,53.961269 
	C100.810310,53.961269 100.789513,54.155132 100.818542,54.637535 
	C100.906540,56.730877 100.965508,58.341820 101.024475,59.952763 
	C101.075264,61.330067 101.126045,62.707367 101.133514,64.793625 
	C101.037560,65.700218 100.984917,65.897858 100.705032,66.090096 
	C100.477783,66.084686 100.023430,66.100075 99.860580,65.800323 
	C97.493660,63.564579 95.289581,61.628582 93.072220,59.343033 
	C92.582375,56.136112 91.989410,53.471016 87.868942,55.922043 
	C84.054749,54.472118 80.586586,53.160927 77.133072,51.451424 
	C76.045952,41.239750 66.141014,37.704887 62.312450,29.648554 
	C60.426975,37.081268 62.718613,43.852245 63.512375,50.788780 
	C62.094944,51.191246 61.019917,51.525024 59.944893,51.858803 
	C59.110279,48.828384 58.830639,45.480228 57.317928,42.838032 
	C54.699284,38.264156 52.714901,32.802250 46.703903,31.125446 
	C50.625935,31.136435 50.458321,28.406883 50.332443,25.914743 
	C50.139999,22.104752 46.162567,17.039717 42.861168,17.381102 
	C41.256660,17.547016 39.929081,20.390991 38.476135,22.022610 
	C33.158550,17.416348 27.759912,12.898966 22.563412,8.159931 
	C20.494614,6.273257 18.873041,3.896187 17.023933,1.371184 
	C30.354227,1.000000 43.708454,1.000000 57.531342,1.000000 
	C58.963333,7.640397 63.696865,11.810167 68.372780,15.661653 
	C73.730957,20.075109 79.704773,23.741152 85.529602,28.239773 
	C85.554886,30.970808 85.461685,33.193977 85.368477,35.417152 
	C87.058456,35.246166 88.748436,35.075184 90.438416,34.904198 
z"/>
<path fill="#FA3E04" opacity="1.000000" stroke="none" 
	d="
M33.032501,81.006516 
	C35.524391,74.904900 37.874599,68.738815 40.602406,62.744560 
	C41.333736,61.137489 43.216209,60.054264 45.088242,58.423214 
	C46.769703,58.366665 47.933163,58.617458 48.761078,58.990044 
	C41.936077,63.341431 39.746784,70.097168 43.017952,76.359444 
	C45.135345,81.818176 49.026569,84.928162 54.400887,86.960724 
	C58.164818,88.054665 61.584774,88.988297 64.666840,90.098518 
	C60.315289,89.694527 56.312603,89.006943 52.281788,88.593826 
	C50.946800,88.457016 49.539394,89.026779 48.165100,89.273491 
	C48.738956,90.487686 49.039326,91.979713 49.937798,92.864143 
	C52.666512,95.550217 54.498642,99.486389 59.124084,99.760567 
	C59.673943,99.793167 60.375923,100.853981 60.639862,101.573082 
	C64.254730,111.421837 71.056168,117.286438 81.592331,118.649071 
	C82.336250,118.745270 83.255775,119.278625 83.662483,119.893768 
	C86.163071,123.675987 89.707222,123.985893 93.762550,123.438408 
	C96.709137,123.040611 99.727440,122.944733 102.703888,123.035988 
	C117.561546,123.491547 128.045578,115.724602 137.418365,105.005127 
	C139.220963,104.995956 140.607651,104.989304 141.805084,105.259491 
	C133.432358,113.294067 125.731407,121.747856 114.291008,124.887848 
	C109.215981,126.280769 104.107201,127.550728 98.667191,128.804855 
	C96.921707,128.634232 95.522781,128.535263 93.784630,128.209808 
	C86.889893,125.587227 80.256523,123.380081 73.808556,120.723007 
	C70.039581,119.169891 66.566696,116.898270 62.852470,114.715004 
	C62.531776,114.006531 62.319221,113.532944 62.223221,112.811768 
	C62.234276,111.699600 62.128777,110.834999 61.868286,109.794273 
	C61.499447,109.389069 61.272621,109.173660 60.717224,108.812454 
	C58.602554,108.765762 56.803486,108.878525 54.805939,108.723785 
	C46.936817,101.495834 41.817005,92.710297 36.778999,83.833115 
	C36.070312,82.584373 34.307423,81.933914 33.032501,81.006516 
z"/>
<path fill="#AF0D44" opacity="1.000000" stroke="none" 
	d="
M142.070892,149.010010 
	C141.465271,149.468307 140.859634,149.926590 139.787796,150.719025 
	C138.226242,152.040070 137.130890,153.026993 136.035538,154.013901 
	C135.732590,154.137680 135.472977,154.322357 134.819977,154.852844 
	C133.792831,155.701904 133.202393,156.266037 132.611954,156.830170 
	C131.845917,157.360001 131.079880,157.889816 129.797379,158.729492 
	C124.955971,161.875732 120.631012,164.712112 116.306061,167.548492 
	C116.306053,167.548492 116.106201,167.494858 115.779449,167.608948 
	C115.314125,167.816666 115.175545,167.910309 115.036972,168.003967 
	C114.505760,168.229874 113.974541,168.455765 112.801392,168.884567 
	C105.768013,169.033051 99.376556,168.978622 92.985100,168.924210 
	C92.985100,168.924210 92.753334,168.797379 92.358292,168.569565 
	C91.301270,168.133682 90.639290,167.925598 89.977318,167.717514 
	C89.977318,167.717514 89.804153,167.591095 89.424026,167.391174 
	C86.706558,166.111282 84.369217,165.031311 82.031876,163.951355 
	C82.031876,163.951355 82.004349,164.001633 81.900841,163.750122 
	C81.481956,163.086121 81.166588,162.673645 81.287201,162.215515 
	C86.319916,161.928207 90.960869,162.003036 95.502686,161.368362 
	C101.800102,160.488388 108.547401,160.207275 114.149048,157.612411 
	C121.648849,154.138275 127.088020,146.749588 136.130371,145.692200 
	C140.553543,145.174957 141.040009,140.272308 143.662247,137.893143 
	C150.008209,132.135376 157.046021,127.140114 163.915192,121.926773 
	C164.025421,122.016037 164.240723,122.194511 164.174255,122.484016 
	C164.031891,123.160706 163.955994,123.547882 163.880066,123.935059 
	C163.669724,124.196762 163.459366,124.458458 162.935684,125.116959 
	C162.385193,125.998779 162.148041,126.483810 161.910889,126.968842 
	C161.910889,126.968842 161.977264,126.975143 161.700592,127.131050 
	C160.888092,128.163239 160.352249,129.039536 159.816406,129.915817 
	C159.535233,130.061035 159.313248,130.269348 158.805420,130.911285 
	C158.181396,131.797516 157.902451,132.313202 157.623505,132.828903 
	C157.623505,132.828903 157.693542,132.714478 157.377991,132.846283 
	C156.336731,133.961151 155.611023,134.944214 154.885315,135.927261 
	C154.597641,136.052429 154.359726,136.240509 153.841217,136.812317 
	C153.350113,137.420624 153.189331,137.708115 153.028549,137.995621 
	C151.490601,139.556458 149.952667,141.117294 147.969055,143.046249 
	C147.068481,143.959366 146.613586,144.504364 146.158707,145.049362 
	C145.873291,145.256302 145.587875,145.463242 144.911606,146.010773 
	C144.053070,146.916656 143.585373,147.481918 143.117691,148.047195 
	C143.117691,148.047195 143.033188,148.037811 142.817749,148.164001 
	C142.338394,148.466049 142.161240,148.705978 142.070892,149.010010 
z"/>
<path fill="#BE0C40" opacity="1.000000" stroke="none" 
	d="
M163.804947,121.837509 
	C157.046021,127.140114 150.008209,132.135376 143.662247,137.893143 
	C141.040009,140.272308 140.553543,145.174957 136.130371,145.692200 
	C127.088020,146.749588 121.648849,154.138275 114.149048,157.612411 
	C108.547401,160.207275 101.800102,160.488388 95.502686,161.368362 
	C90.960869,162.003036 86.319916,161.928207 81.277267,162.190750 
	C80.831352,162.211655 80.870369,162.175888 80.808777,161.951721 
	C80.140411,161.509552 79.533630,161.291550 78.608276,161.054993 
	C77.866432,161.003296 77.443176,160.970139 77.019913,160.936996 
	C77.019913,160.936996 76.861885,160.752502 76.551323,160.428680 
	C75.229912,159.510574 74.219063,158.916321 73.208214,158.322067 
	C73.208214,158.322067 73.398270,158.104477 73.599159,157.849655 
	C73.929695,157.390640 74.058052,157.185654 74.457031,156.854538 
	C75.486961,156.484238 76.244995,156.239258 77.309746,156.156738 
	C78.746597,156.545212 79.876724,156.771194 81.350922,157.127716 
	C83.796028,157.170364 85.897072,157.082458 88.373093,156.994171 
	C89.498039,156.993362 90.247993,156.992935 91.441940,156.994049 
	C99.913651,155.110596 108.059563,153.605438 115.913475,151.161789 
	C119.259247,150.120789 121.994545,147.117706 125.355064,144.912155 
	C127.804291,143.219284 129.905716,141.620514 132.272369,139.925018 
	C133.028473,139.551987 133.519333,139.275696 134.364258,138.948883 
	C135.912552,138.344818 137.219589,137.953278 138.283554,137.212601 
	C148.960175,129.780075 157.533493,120.466537 164.040970,109.134293 
	C166.528214,104.802940 169.980118,101.025536 172.868073,97.327972 
	C172.832077,99.450386 172.920410,101.240524 173.006256,103.342552 
	C172.737564,104.429626 172.471359,105.204803 171.882080,106.124420 
	C167.172592,110.561043 162.575943,114.748520 163.804947,121.837509 
z"/>
<path fill="#D83B04" opacity="1.000000" stroke="none" 
	d="
M59.550797,51.857403 
	C61.019917,51.525024 62.094944,51.191246 63.689152,51.101753 
	C70.074745,58.555206 72.832939,58.662819 77.118431,51.849731 
	C80.586586,53.160927 84.054749,54.472118 87.792816,56.319824 
	C88.155945,58.175732 88.249161,59.495125 87.927681,60.847374 
	C86.682549,60.930111 85.852097,60.979996 84.715729,60.873463 
	C82.609901,61.160240 80.077759,61.004314 79.138756,62.151932 
	C75.377930,66.748260 70.276382,67.429741 65.004791,67.664017 
	C64.999702,66.889587 64.996407,66.447083 64.986084,65.590759 
	C64.722473,63.412865 64.601151,61.616211 64.185493,59.890446 
	C62.528019,53.008781 61.292671,52.534115 54.716251,55.877357 
	C54.297180,54.761318 54.067558,53.913692 53.837936,53.066071 
	C55.610859,52.662712 57.383781,52.259357 59.550797,51.857403 
z"/>
<path fill="#CE1832" opacity="1.000000" stroke="none" 
	d="
M53.637424,139.744415 
	C53.393650,139.414078 53.149879,139.083740 53.085785,138.322418 
	C53.182545,136.574814 53.099636,135.258209 52.907356,133.613083 
	C52.197056,131.524521 51.596130,129.764481 51.249352,128.123016 
	C52.005001,128.492630 52.506504,128.743668 53.224121,129.233505 
	C54.958187,130.980865 56.476139,132.489426 58.101585,134.322754 
	C59.364971,136.016235 60.298298,137.698380 61.712852,138.702820 
	C70.947281,145.259903 80.975296,149.998886 92.603294,148.888855 
	C100.455246,148.139297 108.206604,146.335953 115.878906,145.297913 
	C115.165184,146.723297 114.575516,147.854736 113.655472,148.988953 
	C112.884644,148.998245 112.444183,149.004745 111.595642,149.031265 
	C97.454262,152.585892 83.724785,153.412674 69.738831,148.898712 
	C68.985062,148.535294 68.495186,148.266266 67.861099,147.706940 
	C66.479805,146.610138 65.242714,145.803604 63.784874,144.761658 
	C62.031914,143.370636 60.499695,142.215057 58.721458,140.922760 
	C57.976055,140.526169 57.476673,140.266312 56.763966,139.881042 
	C55.579567,139.751907 54.608498,139.748154 53.637424,139.744415 
z"/>
<path fill="#F3370C" opacity="1.000000" stroke="none" 
	d="
M32.915291,81.320312 
	C34.307423,81.933914 36.070312,82.584373 36.778999,83.833115 
	C41.817005,92.710297 46.936817,101.495834 54.675484,109.063812 
	C54.496883,111.102654 54.250267,112.533981 53.754875,113.975433 
	C53.506104,113.985573 53.008373,113.999466 52.689865,113.872131 
	C49.055542,109.047829 45.812099,104.297493 42.400780,99.670944 
	C39.721203,96.036797 36.834232,92.555573 33.985161,88.621094 
	C33.564766,86.479660 33.198601,84.723534 32.832436,82.967415 
	C32.820984,82.522980 32.809536,82.078545 32.915291,81.320312 
z"/>
<path fill="#32131B" opacity="1.000000" stroke="none" 
	d="
M172.205170,105.979988 
	C172.471359,105.204803 172.737564,104.429626 173.221313,103.039047 
	C173.878601,99.932678 174.318359,97.441711 174.850372,94.597153 
	C174.973022,93.516312 175.003448,92.789047 175.217163,91.693665 
	C175.303894,87.190392 175.207321,83.055252 175.134094,78.543762 
	C175.036575,77.425613 174.915710,76.683807 174.828064,75.623169 
	C174.598389,74.516045 174.335510,73.727753 174.091461,72.943466 
	C174.110306,72.947464 174.103851,72.909439 174.104614,72.585136 
	C173.760971,71.483101 173.416580,70.705376 173.041473,69.578438 
	C172.098801,67.403847 171.186813,65.578468 170.184937,63.455521 
	C169.424011,62.391880 168.752945,61.625816 167.946045,60.593136 
	C167.190536,59.845150 166.570847,59.363785 165.832611,58.603790 
	C164.874847,57.864758 164.035660,57.404346 163.074936,56.605495 
	C161.321671,55.553730 159.689957,54.840401 157.793976,53.914772 
	C156.713928,53.394047 155.898117,53.085629 154.907486,52.509129 
	C153.896637,52.100098 153.060638,51.959148 152.163818,51.535900 
	C151.961090,50.895638 151.819153,50.537674 151.677216,50.179710 
	C161.815948,49.906567 171.594315,58.229156 175.384094,70.098953 
	C179.339066,82.486099 178.013031,94.608871 173.925491,106.637672 
	C173.674713,107.375710 173.006958,107.972046 172.238892,108.431839 
	C172.031448,107.479568 172.118317,106.729774 172.205170,105.979988 
z"/>
<path fill="#F3B412" opacity="1.000000" stroke="none" 
	d="
M38.514519,22.392704 
	C39.929081,20.390991 41.256660,17.547016 42.861168,17.381102 
	C46.162567,17.039717 50.139999,22.104752 50.332443,25.914743 
	C50.458321,28.406883 50.625935,31.136435 46.411018,30.942200 
	C43.829544,29.483755 41.621964,27.979980 39.210922,25.958351 
	C38.925465,25.288513 38.843464,25.136532 38.761467,24.984552 
	C38.691944,24.243969 38.622421,23.503384 38.514519,22.392704 
z"/>
<path fill="#F36A36" opacity="1.000000" stroke="none" 
	d="
M53.501144,53.009903 
	C54.067558,53.913692 54.297180,54.761318 54.865658,56.157555 
	C55.330986,58.154591 55.457458,59.603024 55.583931,61.051453 
	C54.260845,60.794159 52.904194,60.643894 51.626102,60.243118 
	C50.727581,59.961369 49.935970,59.338692 49.096619,58.868252 
	C47.933163,58.617458 46.769703,58.366665 45.242954,58.126923 
	C44.238792,57.402592 43.148071,56.725193 43.044357,55.920570 
	C42.771488,53.803669 42.927891,51.631432 42.913311,49.481236 
	C45.193302,49.732788 47.547249,49.721760 49.725327,50.335175 
	C51.015186,50.698441 52.027332,52.047794 53.501144,53.009903 
z"/>
<path fill="#B72406" opacity="1.000000" stroke="none" 
	d="
M100.023430,66.100075 
	C100.023430,66.100075 100.477783,66.084686 100.821030,66.393417 
	C102.453056,69.017372 104.014687,69.185326 105.834549,67.292946 
	C107.757912,65.292938 109.679131,63.290874 111.601280,61.289711 
	C112.003510,61.035664 112.405739,60.781616 113.155258,60.205788 
	C113.687958,59.605217 113.873360,59.326420 114.058762,59.047626 
	C114.058762,59.047626 114.033920,59.081474 114.374786,59.046776 
	C115.561340,58.391491 116.407036,57.770901 117.252731,57.150314 
	C117.639221,56.986370 118.025719,56.822422 118.906776,56.583267 
	C119.567032,56.608181 119.732712,56.708302 119.821198,57.092133 
	C119.468895,57.893517 119.193787,58.411198 118.933769,58.958389 
	C118.948860,58.987904 118.992455,58.938011 118.743973,59.061111 
	C118.227776,59.439068 117.960052,59.693924 117.527878,60.038952 
	C117.160591,60.281101 116.993866,60.465694 116.553162,60.829838 
	C113.871239,63.315128 111.499413,65.653496 108.896515,68.229126 
	C107.391479,69.935318 106.117523,71.404243 104.574371,73.059601 
	C102.176521,75.111015 100.047882,76.976006 97.668556,78.858635 
	C97.252052,78.900146 97.086235,78.924026 96.454704,78.913589 
	C95.057999,78.781036 94.127007,78.682800 93.452370,78.326248 
	C94.442757,76.389450 95.176781,74.710960 96.180893,72.824249 
	C97.641800,70.444046 98.832619,68.272064 100.023430,66.100075 
z"/>
<path fill="#C1113C" opacity="1.000000" stroke="none" 
	d="
M68.005310,147.997223 
	C68.495186,148.266266 68.985062,148.535294 69.888550,149.197342 
	C72.535782,151.725006 74.769409,153.859634 77.003029,155.994278 
	C76.244995,156.239258 75.486961,156.484238 74.105637,156.877228 
	C73.250595,157.053070 73.018852,157.080872 72.787117,157.108673 
	C72.319435,156.829971 71.851753,156.551270 71.085075,155.790756 
	C70.137291,154.915009 69.488510,154.521057 68.839722,154.127106 
	C68.839722,154.127106 68.911346,154.077042 68.744225,153.904343 
	C68.262444,153.525879 67.947777,153.320099 67.633118,153.114334 
	C66.864456,152.529312 66.095787,151.944305 65.180458,150.717728 
	C65.022636,149.053864 65.011482,148.031555 65.293327,147.129639 
	C66.392654,147.499084 67.198982,147.748169 68.005310,147.997223 
z"/>
<path fill="#AF0D44" opacity="1.000000" stroke="none" 
	d="
M171.882080,106.124420 
	C172.118317,106.729774 172.031448,107.479568 171.936737,108.606499 
	C171.668350,109.472870 171.407822,109.962097 170.894928,110.990334 
	C170.053818,113.003288 169.465088,114.477234 168.876373,115.951180 
	C168.876373,115.951180 168.939316,115.975235 168.741852,116.059799 
	C168.304855,116.370140 168.165863,116.646469 168.127441,116.973358 
	C168.127441,116.973358 167.897034,117.225029 167.600006,117.615921 
	C166.828552,118.979820 166.354126,119.952835 165.879715,120.925858 
	C165.879715,120.925858 165.956757,120.961220 165.696106,121.051956 
	C165.037231,121.493301 164.638977,121.843910 164.240723,122.194519 
	C164.240723,122.194511 164.025421,122.016037 163.915192,121.926773 
	C162.575943,114.748520 167.172592,110.561043 171.882080,106.124420 
z"/>
<path fill="#AD0D0C" opacity="1.000000" stroke="none" 
	d="
M90.447708,34.553585 
	C88.748436,35.075184 87.058456,35.246166 85.368477,35.417152 
	C85.461685,33.193977 85.554886,30.970808 85.802094,28.443510 
	C86.441124,28.074808 86.926155,28.010233 87.885284,28.027981 
	C88.359383,28.110302 88.652000,28.170557 88.652000,28.170555 
	C89.108368,28.953777 89.564735,29.736998 90.146271,31.106651 
	C90.367844,32.063343 90.464226,32.433601 90.560608,32.803856 
	C90.526077,33.270226 90.491531,33.736599 90.447708,34.553585 
z"/>
<path fill="#32131B" opacity="1.000000" stroke="none" 
	d="
M101.414444,59.945045 
	C100.965508,58.341820 100.906540,56.730877 100.839493,54.732742 
	C102.814369,53.968254 104.791946,53.531132 106.792648,53.351616 
	C106.922577,53.339954 107.753403,55.915764 107.364464,56.250969 
	C105.693352,57.691208 103.687996,58.743626 101.414444,59.945045 
z"/>
<path fill="#C74A18" opacity="1.000000" stroke="none" 
	d="
M151.505768,50.174675 
	C151.819153,50.537674 151.961090,50.895638 151.728271,51.544640 
	C149.899765,51.837612 148.445984,51.839554 146.608734,51.709167 
	C140.509216,51.713326 134.793198,51.849812 129.305267,51.753418 
	C130.525848,51.065536 131.518341,50.610531 132.510834,50.155529 
	C132.510834,50.155529 132.762253,50.182705 133.290497,50.113205 
	C139.557434,50.029903 145.296143,50.016109 151.034836,50.002312 
	C151.034836,50.002312 151.334320,50.169636 151.505768,50.174675 
z"/>
<path fill="#32131B" opacity="1.000000" stroke="none" 
	d="
M93.260254,169.169250 
	C99.376556,168.978622 105.768013,169.033051 112.578804,169.071899 
	C106.602142,174.154800 100.075996,172.176956 93.260254,169.169250 
z"/>
<path fill="#AB2435" opacity="1.000000" stroke="none" 
	d="
M39.135109,115.933548 
	C37.085026,109.919479 35.034939,103.905411 33.252014,97.463715 
	C33.519176,97.036095 33.966286,97.009857 33.998810,97.005112 
	C34.031338,97.000374 34.088257,96.968643 34.109596,97.316391 
	C34.479370,98.766907 34.827808,99.869690 35.228127,101.339981 
	C36.205509,104.790665 37.131008,107.873833 38.199745,111.233109 
	C38.607025,112.983994 38.871067,114.458771 39.135109,115.933548 
z"/>
<path fill="#CE1832" opacity="1.000000" stroke="none" 
	d="
M39.168571,116.155754 
	C38.871067,114.458771 38.607025,112.983994 38.535416,111.313339 
	C41.166786,115.059082 43.605713,119.000702 45.703033,122.951706 
	C44.905910,122.973961 44.450394,122.986839 43.832024,122.701996 
	C42.351425,120.636024 41.033680,118.867767 39.715935,117.099510 
	C39.463902,116.916504 39.292599,116.675987 39.168571,116.155754 
z"/>
<path fill="#32131B" opacity="1.000000" stroke="none" 
	d="
M132.061096,50.117458 
	C131.518341,50.610531 130.525848,51.065536 129.264450,51.740318 
	C128.995544,51.960098 128.962814,52.037930 128.659576,52.036560 
	C127.475403,52.505066 126.594452,52.974945 125.667236,53.430580 
	C125.620972,53.416336 125.589394,53.507854 125.290680,53.555553 
	C124.514183,53.958279 124.036415,54.313305 123.305435,54.753033 
	C122.604019,55.122112 122.155792,55.406490 121.453033,55.731865 
	C120.981071,56.026493 120.763657,56.280121 120.373001,56.575829 
	C120.199760,56.617905 119.898392,56.808426 119.898392,56.808426 
	C119.732712,56.708302 119.567032,56.608181 119.143707,56.374039 
	C121.816734,51.478271 126.404259,50.138916 132.061096,50.117458 
z"/>
<path fill="#BE0C40" opacity="1.000000" stroke="none" 
	d="
M65.000320,147.009247 
	C65.011482,148.031555 65.022636,149.053864 65.040512,150.459290 
	C63.087292,149.191879 61.127338,147.541367 59.033325,145.198730 
	C58.914181,143.676254 58.929096,142.845901 58.952141,141.776581 
	C58.960266,141.537613 58.967480,141.059464 58.967480,141.059464 
	C60.499695,142.215057 62.031914,143.370636 63.785019,145.014130 
	C64.006721,145.670349 64.007530,145.838654 64.166183,146.177582 
	C64.538727,146.571899 64.761345,146.787415 64.995300,146.997269 
	C64.998718,146.999771 65.000320,147.009247 65.000320,147.009247 
z"/>
<path fill="#32131B" opacity="1.000000" stroke="none" 
	d="
M116.707787,167.585663 
	C120.631012,164.712112 124.955971,161.875732 129.618698,158.948792 
	C125.674149,161.779755 121.391830,164.701294 116.707787,167.585663 
z"/>
<path fill="#32131B" opacity="1.000000" stroke="none" 
	d="
M111.230324,61.318802 
	C109.679131,63.290874 107.757912,65.292938 105.834549,67.292946 
	C104.014687,69.185326 102.453056,69.017372 101.048271,66.398819 
	C100.984917,65.897858 101.037560,65.700218 101.170944,65.205627 
	C102.820145,64.799721 104.530800,65.047256 105.921448,64.492546 
	C107.702209,63.782230 109.225266,62.425865 111.230324,61.318802 
z"/>
<path fill="#32131B" opacity="1.000000" stroke="none" 
	d="
M150.805206,49.697212 
	C145.296143,50.016109 139.557434,50.029903 133.390945,50.036430 
	C138.716583,46.571438 144.628387,47.492332 150.805206,49.697212 
z"/>
<path fill="#A5193E" opacity="1.000000" stroke="none" 
	d="
M39.773479,117.466988 
	C41.033680,118.867767 42.351425,120.636024 44.007511,122.998337 
	C45.024334,125.282150 45.702812,126.971916 46.270687,128.760956 
	C46.160084,128.860229 45.938957,129.058868 45.938957,129.058868 
	C43.902977,125.317406 41.867001,121.575935 39.773479,117.466988 
z"/>
<path fill="#D42725" opacity="1.000000" stroke="none" 
	d="
M33.966286,97.009857 
	C33.966286,97.009857 33.519176,97.036095 33.296234,97.056885 
	C32.897781,92.619209 32.722271,88.160736 32.689598,83.334839 
	C33.198601,84.723534 33.564766,86.479660 33.971313,89.064507 
	C33.996559,92.265442 33.981422,94.637650 33.966286,97.009857 
z"/>
<path fill="#A5193E" opacity="1.000000" stroke="none" 
	d="
M50.774361,136.153656 
	C49.236065,134.004410 47.697769,131.855148 46.049217,129.382385 
	C45.938957,129.058868 46.160084,128.860229 46.531460,128.950821 
	C48.599129,130.701797 50.295422,132.362167 51.848061,134.293121 
	C51.394390,135.093674 51.084377,135.623657 50.774361,136.153656 
z"/>
<path fill="#A5193E" opacity="1.000000" stroke="none" 
	d="
M58.944008,142.015564 
	C58.929096,142.845901 58.914181,143.676254 58.867329,144.921310 
	C57.161430,143.676590 55.487469,142.017151 53.725464,140.051056 
	C54.608498,139.748154 55.579567,139.751907 56.752686,140.113159 
	C57.617825,140.985641 58.280918,141.500610 58.944008,142.015564 
z"/>
<path fill="#32131B" opacity="1.000000" stroke="none" 
	d="
M82.173141,164.268372 
	C84.369217,165.031311 86.706558,166.111282 89.320267,167.418106 
	C87.169220,166.625107 84.741814,165.605255 82.173141,164.268372 
z"/>
<path fill="#AF0D44" opacity="1.000000" stroke="none" 
	d="
M50.833694,136.136536 
	C51.084377,135.623657 51.394390,135.093674 52.104458,134.274078 
	C52.675247,133.970184 52.845985,133.955902 53.016724,133.941605 
	C53.099636,135.258209 53.182545,136.574814 52.987556,138.028320 
	C52.439926,138.170746 52.228622,138.062378 51.850700,137.402481 
	C51.370808,136.643250 51.115971,136.321686 50.861134,136.000107 
	C50.861134,136.000107 50.893028,136.119415 50.833694,136.136536 
z"/>
<path fill="#32131B" opacity="1.000000" stroke="none" 
	d="
M77.132172,161.269806 
	C77.443176,160.970139 77.866432,161.003296 78.801422,161.268890 
	C79.832222,161.726196 80.351295,161.951035 80.870369,162.175888 
	C80.870369,162.175888 80.831352,162.211655 80.841286,162.236420 
	C81.166588,162.673645 81.481956,163.086121 81.920639,163.728790 
	C80.444099,163.173523 78.844261,162.388077 77.132172,161.269806 
z"/>
<path fill="#32131B" opacity="1.000000" stroke="none" 
	d="
M169.139313,115.784142 
	C169.465088,114.477234 170.053818,113.003288 170.864075,111.269630 
	C170.524506,112.545647 169.963379,114.081375 169.139313,115.784142 
z"/>
<path fill="#32131B" opacity="1.000000" stroke="none" 
	d="
M155.227203,135.867035 
	C155.611023,134.944214 156.336731,133.961151 157.320648,132.811478 
	C156.908936,133.698837 156.239014,134.752823 155.227203,135.867035 
z"/>
<path fill="#32131B" opacity="1.000000" stroke="none" 
	d="
M136.377014,153.971893 
	C137.130890,153.026993 138.226242,152.040070 139.629105,150.959747 
	C138.863907,151.887512 137.791199,152.908707 136.377014,153.971893 
z"/>
<path fill="#32131B" opacity="1.000000" stroke="none" 
	d="
M116.916901,57.167145 
	C116.407036,57.770901 115.561340,58.391491 114.396896,59.048271 
	C114.912453,58.450966 115.746765,57.817474 116.916901,57.167145 
z"/>
<path fill="#32131B" opacity="1.000000" stroke="none" 
	d="
M160.116180,129.786423 
	C160.352249,129.039536 160.888092,128.163239 161.677002,127.107498 
	C161.425369,127.837700 160.920654,128.747360 160.116180,129.786423 
z"/>
<path fill="#32131B" opacity="1.000000" stroke="none" 
	d="
M73.367119,158.658569 
	C74.219063,158.916321 75.229912,159.510574 76.431633,160.407959 
	C75.590347,160.139069 74.558182,159.567062 73.367119,158.658569 
z"/>
<path fill="#32131B" opacity="1.000000" stroke="none" 
	d="
M164.174255,122.484024 
	C164.638977,121.843910 165.037231,121.493301 165.670471,121.018204 
	C165.426010,121.814774 164.946548,122.735832 164.173584,123.795975 
	C163.955994,123.547882 164.031891,123.160706 164.174255,122.484024 
z"/>
<path fill="#32131B" opacity="1.000000" stroke="none" 
	d="
M166.181335,120.763206 
	C166.354126,119.952835 166.828552,118.979820 167.541016,117.776001 
	C167.347046,118.563644 166.915009,119.582100 166.181335,120.763206 
z"/>
<path fill="#A5193E" opacity="1.000000" stroke="none" 
	d="
M68.978455,154.382599 
	C69.488510,154.521057 70.137291,154.915009 70.925316,155.565979 
	C70.415436,155.428040 69.766312,155.033066 68.978455,154.382599 
z"/>
<path fill="#32131B" opacity="1.000000" stroke="none" 
	d="
M132.921768,156.753433 
	C133.202393,156.266037 133.792831,155.701904 134.680908,155.049164 
	C134.396210,155.532608 133.813889,156.104645 132.921768,156.753433 
z"/>
<path fill="#32131B" opacity="1.000000" stroke="none" 
	d="
M100.795090,53.657436 
	C100.525444,53.218975 100.240570,52.476677 99.911362,51.436714 
	C100.171310,51.877232 100.475594,52.615417 100.795090,53.657436 
z"/>
<path fill="#32131B" opacity="1.000000" stroke="none" 
	d="
M146.407928,144.942566 
	C146.613586,144.504364 147.068481,143.959366 147.776062,143.318420 
	C147.571564,143.760239 147.114365,144.298004 146.407928,144.942566 
z"/>
<path fill="#32131B" opacity="1.000000" stroke="none" 
	d="
M143.376465,147.936340 
	C143.585373,147.481918 144.053070,146.916656 144.779861,146.243149 
	C144.571045,146.698456 144.103134,147.261978 143.376465,147.936340 
z"/>
<path fill="#32131B" opacity="1.000000" stroke="none" 
	d="
M90.251816,167.930939 
	C90.639290,167.925598 91.301270,168.133682 92.226593,168.579865 
	C91.835388,168.593445 91.180847,168.368912 90.251816,167.930939 
z"/>
<path fill="#512518" opacity="1.000000" stroke="none" 
	d="
M90.639435,32.639492 
	C90.464226,32.433601 90.367844,32.063343 90.305389,31.407187 
	C90.465637,31.572569 90.591942,32.023849 90.639435,32.639492 
z"/>
<path fill="#32131B" opacity="1.000000" stroke="none" 
	d="
M157.855103,132.645020 
	C157.902451,132.313202 158.181396,131.797516 158.713562,131.122818 
	C158.673447,131.462936 158.380081,131.962036 157.855103,132.645020 
z"/>
<path fill="#32131B" opacity="1.000000" stroke="none" 
	d="
M162.109741,126.786003 
	C162.148041,126.483810 162.385193,125.998779 162.845734,125.354012 
	C162.815628,125.663902 162.562119,126.133530 162.109741,126.786003 
z"/>
<path fill="#32131B" opacity="1.000000" stroke="none" 
	d="
M113.854172,59.187897 
	C113.873360,59.326420 113.687958,59.605217 113.271912,59.994270 
	C113.189049,59.802654 113.391823,59.543865 113.854172,59.187897 
z"/>
<path fill="#512518" opacity="1.000000" stroke="none" 
	d="
M38.692322,25.112703 
	C38.843464,25.136532 38.925465,25.288513 38.998432,25.698751 
	C38.711948,25.804283 38.589874,25.565565 38.692322,25.112703 
z"/>
<path fill="#32131B" opacity="1.000000" stroke="none" 
	d="
M115.169235,168.039124 
	C115.175545,167.910309 115.314125,167.816666 115.699013,167.674011 
	C115.814941,167.900055 115.600327,168.049805 115.169235,168.039124 
z"/>
<path fill="#32131B" opacity="1.000000" stroke="none" 
	d="
M168.295929,116.821915 
	C168.165863,116.646469 168.304855,116.370140 168.750198,116.027168 
	C168.836487,116.192146 168.672623,116.445648 168.295929,116.821915 
z"/>
<path fill="#A5193E" opacity="1.000000" stroke="none" 
	d="
M72.945175,157.341675 
	C73.018852,157.080872 73.250595,157.053070 73.833740,157.002563 
	C74.058052,157.185654 73.929695,157.390640 73.688850,157.736420 
	C73.419518,157.776901 73.261375,157.675797 72.945175,157.341675 
z"/>
<path fill="#A5193E" opacity="1.000000" stroke="none" 
	d="
M67.783707,153.367035 
	C67.947777,153.320099 68.262444,153.525879 68.769180,153.940216 
	C68.618935,153.972427 68.276611,153.796082 67.783707,153.367035 
z"/>
<path fill="#512518" opacity="1.000000" stroke="none" 
	d="
M88.643997,28.072025 
	C88.652000,28.170557 88.359383,28.110302 88.251442,28.009996 
	C88.327362,27.765760 88.491524,27.787027 88.643997,28.072025 
z"/>
<path fill="#32131B" opacity="1.000000" stroke="none" 
	d="
M142.258011,148.894287 
	C142.161240,148.705978 142.338394,148.466049 142.813049,148.206253 
	C142.873474,148.378601 142.680588,148.597351 142.258011,148.894287 
z"/>
<path fill="#A5193E" opacity="1.000000" stroke="none" 
	d="
M50.943825,136.309921 
	C51.115971,136.321686 51.370808,136.643250 51.785263,137.230804 
	C51.638752,137.204437 51.332634,136.912094 50.943825,136.309921 
z"/>
<path fill="#32131B" opacity="1.000000" stroke="none" 
	d="
M153.212021,137.838333 
	C153.189331,137.708115 153.350113,137.420624 153.732361,137.014313 
	C153.811691,137.188599 153.625580,137.450439 153.212021,137.838333 
z"/>
<path fill="#F35B14" opacity="1.000000" stroke="none" 
	d="
M77.133072,51.451424 
	C72.832939,58.662819 70.074745,58.555206 64.031563,51.033066 
	C62.718613,43.852245 60.426975,37.081268 62.312450,29.648554 
	C66.141014,37.704887 76.045952,41.239750 77.133072,51.451424 
z"/>
<path fill="#CD3304" opacity="1.000000" stroke="none" 
	d="
M99.860580,65.800323 
	C98.832619,68.272064 97.641800,70.444046 95.919250,72.625137 
	C92.239914,70.140793 89.092323,67.647339 85.884079,64.827515 
	C85.546692,63.666111 85.269951,62.831070 85.000496,61.754498 
	C85.007774,61.512966 85.021652,61.029884 85.021652,61.029884 
	C85.852097,60.979996 86.682549,60.930111 88.280846,60.900383 
	C90.394302,60.511223 91.739899,60.101902 93.085503,59.692581 
	C95.289581,61.628582 97.493660,63.564579 99.860580,65.800323 
z"/>
<path fill="#F29C17" opacity="1.000000" stroke="none" 
	d="
M93.072220,59.343029 
	C91.739899,60.101902 90.394302,60.511223 88.695534,60.867531 
	C88.249161,59.495125 88.155945,58.175732 88.138855,56.458557 
	C91.989410,53.471016 92.582375,56.136112 93.072220,59.343029 
z"/>
<path fill="#FE4102" opacity="1.000000" stroke="none" 
	d="
M96.920410,78.947899 
	C97.086235,78.924026 97.252052,78.900146 97.812790,79.235291 
	C98.544182,81.217720 98.580383,82.983498 99.270546,84.439224 
	C101.880638,89.944572 103.402367,97.097969 107.774513,100.349731 
	C113.257828,104.427895 121.042160,105.735107 128.044449,107.284309 
	C130.731033,107.878700 133.999252,105.844215 137.002441,105.007629 
	C128.045578,115.724602 117.561546,123.491547 102.703888,123.035988 
	C99.727440,122.944733 96.709137,123.040611 93.762550,123.438408 
	C89.707222,123.985893 86.163071,123.675987 83.662483,119.893768 
	C83.255775,119.278625 82.336250,118.745270 81.592331,118.649071 
	C71.056168,117.286438 64.254730,111.421837 60.639862,101.573082 
	C60.375923,100.853981 59.673943,99.793167 59.124084,99.760567 
	C54.498642,99.486389 52.666512,95.550217 49.937798,92.864143 
	C49.039326,91.979713 48.738956,90.487686 48.165100,89.273491 
	C49.539394,89.026779 50.946800,88.457016 52.281788,88.593826 
	C56.312603,89.006943 60.315289,89.694527 64.988594,90.144577 
	C66.703117,90.245148 67.757980,90.476250 69.059128,90.865829 
	C70.205116,90.670044 71.104828,90.315781 72.387115,89.896591 
	C74.824677,89.522919 76.879662,89.214149 79.211853,89.025284 
	C80.994461,88.430664 82.499870,87.716141 84.282433,86.866096 
	C85.338860,86.475311 86.118134,86.220055 87.179588,85.875565 
	C87.969864,85.490913 88.477959,85.195488 89.226471,84.675720 
	C91.951401,82.616882 94.435905,80.782394 96.920410,78.947899 
M108.012901,108.144096 
	C107.928864,108.795952 107.844833,109.447800 107.713699,110.314018 
	C107.699524,110.538887 107.752098,110.747704 108.377655,111.397789 
	C112.518150,114.096565 114.634186,112.197235 116.015907,107.608635 
	C115.486115,103.945793 113.152954,105.272537 110.578346,105.958214 
	C110.401810,105.982185 110.225266,106.006157 109.476929,106.280220 
	C108.999161,106.682564 108.521393,107.084908 108.012901,108.144096 
z"/>
<path fill="#FD4A01" opacity="1.000000" stroke="none" 
	d="
M137.418365,105.005127 
	C133.999252,105.844215 130.731033,107.878700 128.044449,107.284309 
	C121.042160,105.735107 113.257828,104.427895 107.774513,100.349731 
	C103.402367,97.097969 101.880638,89.944572 99.270546,84.439224 
	C98.580383,82.983498 98.544182,81.217720 98.063461,79.217651 
	C100.047882,76.976006 102.176521,75.111015 104.762665,73.407600 
	C105.377960,75.031868 105.789230,76.518684 105.652634,77.953354 
	C104.724724,87.698921 109.223618,96.017456 118.359985,98.515762 
	C124.101273,100.085709 130.422531,100.013557 136.459610,99.840645 
	C139.995407,99.739365 143.484100,97.992928 146.996506,97.322174 
	C147.001556,98.104935 147.004074,98.552071 147.002853,99.330383 
	C146.995636,100.103134 146.992157,100.544693 146.677765,101.049484 
	C145.575836,101.739136 144.784821,102.365562 143.765182,103.160660 
	C143.022491,103.880432 142.508408,104.431541 141.994324,104.982651 
	C140.607651,104.989304 139.220963,104.995956 137.418365,105.005127 
z"/>
<path fill="#C92801" opacity="1.000000" stroke="none" 
	d="
M78.934654,88.905380 
	C76.879662,89.214149 74.824677,89.522919 72.057449,89.911499 
	C70.501083,90.229996 69.656960,90.468674 68.812843,90.707352 
	C67.757980,90.476250 66.703117,90.245148 65.326492,89.967987 
	C61.584774,88.988297 58.164818,88.054665 54.504616,86.643600 
	C55.020149,84.500511 55.624458,82.743721 56.561230,81.186981 
	C58.985069,77.159035 61.538887,73.197990 67.250038,73.224037 
	C70.189590,78.448975 74.125549,81.630310 80.207146,82.232933 
	C82.068977,82.509392 83.879974,83.016731 85.317856,82.495247 
	C88.056458,81.502037 90.582001,79.921341 93.196007,78.584564 
	C94.127007,78.682800 95.057999,78.781036 96.454704,78.913589 
	C94.435905,80.782394 91.951401,82.616882 88.947708,84.771301 
	C87.918144,85.382416 87.407776,85.673607 86.897408,85.964798 
	C86.118134,86.220055 85.338860,86.475311 83.945236,86.928375 
	C81.865471,87.719246 80.400063,88.312309 78.934654,88.905380 
z"/>
<path fill="#CF3702" opacity="1.000000" stroke="none" 
	d="
M48.761078,58.990044 
	C49.935970,59.338692 50.727581,59.961369 51.626102,60.243118 
	C52.904194,60.643894 54.260845,60.794159 55.583931,61.051453 
	C55.457458,59.603024 55.330986,58.154591 55.055107,56.425968 
	C61.292671,52.534115 62.528019,53.008781 64.185493,59.890446 
	C64.601151,61.616211 64.722473,63.412865 64.598785,65.609924 
	C59.208908,68.493462 54.214989,70.976913 49.182014,73.378517 
	C47.148022,74.349083 45.028687,75.140762 42.948189,76.013855 
	C39.746784,70.097168 41.936077,63.341431 48.761078,58.990044 
z"/>
<path fill="#CC3001" opacity="1.000000" stroke="none" 
	d="
M43.017952,76.359444 
	C45.028687,75.140762 47.148022,74.349083 49.182014,73.378517 
	C54.214989,70.976913 59.208908,68.493462 64.605820,66.023743 
	C64.996407,66.447083 64.999702,66.889587 65.181946,67.954269 
	C65.906975,70.051460 66.453056,71.526489 66.999130,73.001511 
	C61.538887,73.197990 58.985069,77.159035 56.561230,81.186981 
	C55.624458,82.743721 55.020149,84.500511 54.160645,86.483292 
	C49.026569,84.928162 45.135345,81.818176 43.017952,76.359444 
z"/>
<path fill="#F83C07" opacity="1.000000" stroke="none" 
	d="
M141.805084,105.259491 
	C142.508408,104.431541 143.022491,103.880432 144.098541,103.162636 
	C145.104782,102.997299 145.549026,102.998650 145.997101,103.000443 
	C146.000931,103.000877 146.007553,103.007019 145.897369,103.328491 
	C136.325699,117.573082 123.841797,127.186378 107.244041,131.225204 
	C104.390587,131.919556 101.962875,133.162079 99.764999,129.873337 
	C99.387871,129.431335 99.200806,129.153931 99.013741,128.876511 
	C104.107201,127.550728 109.215981,126.280769 114.291008,124.887848 
	C125.731407,121.747856 133.432358,113.294067 141.805084,105.259491 
z"/>
<path fill="#F83C07" opacity="1.000000" stroke="none" 
	d="
M62.960602,114.949875 
	C66.566696,116.898270 70.039581,119.169891 73.808556,120.723007 
	C80.256523,123.380081 86.889893,125.587227 93.598343,128.380157 
	C93.227272,129.207016 92.703270,129.637070 91.815033,130.119354 
	C89.503448,130.019745 87.268250,130.436646 85.656784,129.621109 
	C77.028687,125.254547 68.556145,120.580612 60.332432,115.933807 
	C61.410213,115.553101 62.185406,115.251488 62.960602,114.949875 
z"/>
<path fill="#FE934F" opacity="1.000000" stroke="none" 
	d="
M92.179276,130.067108 
	C92.703270,129.637070 93.227272,129.207016 93.937561,128.606628 
	C95.522781,128.535263 96.921707,128.634232 98.667191,128.804855 
	C99.200806,129.153931 99.387871,129.431335 99.758965,130.228333 
	C99.424393,132.045975 98.905792,133.344040 98.055740,134.662552 
	C96.181778,134.432648 94.639259,134.182297 93.064667,133.937332 
	C93.032578,133.942703 93.054649,134.003906 92.938019,133.732819 
	C92.557434,133.169937 92.293488,132.878128 92.069061,132.272949 
	C92.132149,131.328735 92.155708,130.697922 92.179276,130.067108 
z"/>
<path fill="#E94A0F" opacity="1.000000" stroke="none" 
	d="
M54.003647,113.965302 
	C54.250267,112.533981 54.496883,111.102654 54.873955,109.331306 
	C56.803486,108.878525 58.602554,108.765762 60.623177,108.929169 
	C60.844730,109.205330 60.657806,109.439674 60.317421,109.378952 
	C58.332272,110.546173 56.687508,111.774132 54.880409,113.174240 
	C54.490376,113.564758 54.252235,113.771057 54.003647,113.965302 
z"/>
<path fill="#E94A0F" opacity="1.000000" stroke="none" 
	d="
M62.852467,114.714996 
	C62.185406,115.251488 61.410213,115.553101 60.069672,115.923874 
	C58.670940,115.648270 57.837555,115.303497 57.354927,114.950882 
	C59.131100,114.291786 60.556511,113.640549 62.012932,113.007141 
	C62.043938,113.024963 62.106663,113.059349 62.106663,113.059349 
	C62.319221,113.532944 62.531776,114.006531 62.852467,114.714996 
z"/>
<path fill="#E94A0F" opacity="1.000000" stroke="none" 
	d="
M62.023277,109.970406 
	C62.128777,110.834999 62.234276,111.699600 62.223221,112.811768 
	C62.106663,113.059349 62.043938,113.024963 61.981697,112.672241 
	C61.801262,111.659637 61.683071,110.999756 61.679726,110.247810 
	C61.794571,110.155746 62.023277,109.970406 62.023277,109.970406 
z"/>
<path fill="#E94A0F" opacity="1.000000" stroke="none" 
	d="
M60.938774,109.088623 
	C61.272621,109.173660 61.499447,109.389069 61.868286,109.794273 
	C62.023277,109.970406 61.794571,110.155746 61.508263,110.119476 
	C61.003403,109.895432 60.815353,109.680923 60.657806,109.439674 
	C60.657806,109.439674 60.844730,109.205330 60.938774,109.088623 
z"/>
<path fill="#C1113C" opacity="1.000000" stroke="none" 
	d="
M175.033875,92.061790 
	C175.003448,92.789047 174.973022,93.516312 174.616455,94.744553 
	C173.857681,95.828918 173.425049,96.412300 172.992416,96.995682 
	C169.980118,101.025536 166.528214,104.802940 164.040970,109.134293 
	C157.533493,120.466537 148.960175,129.780075 138.283554,137.212601 
	C137.219589,137.953278 135.912552,138.344818 134.523773,138.656799 
	C137.209991,135.269196 140.090775,132.123184 142.981216,128.984619 
	C142.990891,128.992081 142.981201,128.977829 143.185364,128.889954 
	C143.595123,128.200912 143.800735,127.599731 144.134186,126.752213 
	C144.517944,126.013306 144.773849,125.520729 145.342026,124.929047 
	C147.105881,123.891502 148.557449,122.953072 150.322052,121.896782 
	C151.760269,120.187996 152.885468,118.597069 154.182404,116.846428 
	C154.578888,116.469170 154.795181,116.243538 155.301361,115.857681 
	C157.400116,112.803169 159.200516,109.900787 161.003891,106.753624 
	C161.006851,106.508842 161.009140,106.019249 161.265350,105.881577 
	C162.011444,105.162781 162.501343,104.581665 162.995132,103.669662 
	C163.002365,102.897591 163.005692,102.456406 163.312439,101.855797 
	C164.745285,99.129906 165.874725,96.563431 167.112640,93.660355 
	C169.129868,86.559540 171.038635,79.795311 173.236984,73.005028 
	C173.718979,72.955788 173.911423,72.932610 174.103851,72.909439 
	C174.103851,72.909439 174.110306,72.947464 174.098480,73.257095 
	C174.322708,74.358490 174.558762,75.150246 174.794830,75.942009 
	C174.915710,76.683807 175.036575,77.425613 174.943253,78.912308 
	C174.830673,83.792068 174.932281,87.926926 175.033875,92.061790 
z"/>
<path fill="#C71239" opacity="1.000000" stroke="none" 
	d="
M77.309746,156.156738 
	C74.769409,153.859634 72.535782,151.725006 70.152435,149.291718 
	C83.724785,153.412674 97.454262,152.585892 111.414688,149.323486 
	C109.108131,150.727341 106.638458,152.043716 104.026299,152.948898 
	C99.732101,154.436966 95.345558,155.658569 90.997955,156.992508 
	C90.247993,156.992935 89.498039,156.993362 88.044998,156.832596 
	C85.230225,156.779999 83.118546,156.888580 81.006859,156.997177 
	C79.876724,156.771194 78.746597,156.545212 77.309746,156.156738 
z"/>
<path fill="#C1113C" opacity="1.000000" stroke="none" 
	d="
M91.441940,156.994049 
	C95.345558,155.658569 99.732101,154.436966 104.026299,152.948898 
	C106.638458,152.043716 109.108131,150.727341 111.822769,149.303467 
	C112.444183,149.004745 112.884644,148.998245 114.037254,148.973724 
	C116.833336,147.639175 118.917252,146.322647 121.331894,145.001953 
	C122.103584,144.994400 122.544556,144.990982 123.320450,144.990234 
	C124.101715,144.993439 124.548073,144.993973 124.997131,144.997162 
	C124.999832,144.999802 125.007256,145.006256 125.007256,145.006256 
	C121.994545,147.117706 119.259247,150.120789 115.913475,151.161789 
	C108.059563,153.605438 99.913651,155.110596 91.441940,156.994049 
z"/>
<path fill="#CB1634" opacity="1.000000" stroke="none" 
	d="
M142.971542,128.977173 
	C140.090775,132.123184 137.209991,135.269196 134.169708,138.707306 
	C133.519333,139.275696 133.028473,139.551987 132.020767,139.919098 
	C131.336212,140.006882 131.168488,140.003830 130.739151,139.919647 
	C129.986557,139.598709 129.495590,139.358917 129.292297,138.928024 
	C130.679062,137.177963 131.778137,135.619019 133.212341,133.946991 
	C136.688843,132.214996 139.830185,130.596085 142.971542,128.977173 
z"/>
<path fill="#C1113C" opacity="1.000000" stroke="none" 
	d="
M131.000778,140.000793 
	C131.168488,140.003830 131.336212,140.006882 131.755524,140.015839 
	C129.905716,141.620514 127.804291,143.219284 125.355064,144.912155 
	C125.007256,145.006256 124.999832,144.999802 124.998718,144.664459 
	C124.998253,143.885376 124.998894,143.441605 125.257599,142.778534 
	C127.344032,141.706406 129.172409,140.853607 131.000778,140.000793 
z"/>
<path fill="#AF0D44" opacity="1.000000" stroke="none" 
	d="
M172.868073,97.327972 
	C173.425049,96.412300 173.857681,95.828918 174.524200,95.098145 
	C174.318359,97.441711 173.878601,99.932678 173.223801,102.727150 
	C172.920410,101.240524 172.832077,99.450386 172.868073,97.327972 
z"/>
<path fill="#C1113C" opacity="1.000000" stroke="none" 
	d="
M81.350922,157.127716 
	C83.118546,156.888580 85.230225,156.779999 87.670013,156.832993 
	C85.897072,157.082458 83.796028,157.170364 81.350922,157.127716 
z"/>
<path fill="#AF0D44" opacity="1.000000" stroke="none" 
	d="
M80.808777,161.951721 
	C80.351295,161.951035 79.832222,161.726196 79.119995,161.287445 
	C79.533630,161.291550 80.140411,161.509552 80.808777,161.951721 
z"/>
<path fill="#D33603" opacity="1.000000" stroke="none" 
	d="
M67.250038,73.224037 
	C66.453056,71.526489 65.906975,70.051460 65.183746,68.286186 
	C70.276382,67.429741 75.377930,66.748260 79.138756,62.151932 
	C80.077759,61.004314 82.609901,61.160240 84.715729,60.873463 
	C85.021652,61.029884 85.007774,61.512966 84.738365,61.909504 
	C83.975677,63.153507 83.482399,64.000977 82.637634,64.967697 
	C76.667389,70.064919 78.905624,76.110619 79.987823,81.999222 
	C74.125549,81.630310 70.189590,78.448975 67.250038,73.224037 
z"/>
<path fill="#D51E2A" opacity="1.000000" stroke="none" 
	d="
M116.002953,145.003983 
	C108.206604,146.335953 100.455246,148.139297 92.603294,148.888855 
	C80.975296,149.998886 70.947281,145.259903 61.712852,138.702820 
	C60.298298,137.698380 59.364971,136.016235 58.430756,134.430573 
	C60.763798,135.143234 62.875156,136.072845 65.149323,137.174896 
	C65.532524,137.574020 65.760040,137.793289 66.155136,138.308319 
	C71.178085,140.735550 75.918648,143.247482 80.951477,144.829803 
	C83.714401,145.698471 86.969948,145.000198 90.335068,145.008575 
	C91.109047,145.008820 91.551346,145.008942 92.206284,145.293823 
	C95.110222,147.551575 97.667747,147.737274 100.413513,145.007538 
	C103.547623,144.339233 106.275536,143.674026 109.290665,143.110382 
	C111.721893,142.144760 113.865898,141.077606 116.340813,140.007721 
	C117.113220,140.001587 117.554718,139.998184 118.352234,139.913452 
	C120.144234,139.559082 121.580200,139.286072 122.902374,139.336609 
	C120.856857,141.436523 118.925125,143.212921 116.745781,144.992676 
	C116.498169,144.996017 116.002953,145.003983 116.002953,145.003983 
z"/>
<path fill="#D42725" opacity="1.000000" stroke="none" 
	d="
M64.986519,137.002441 
	C62.875156,136.072845 60.763798,135.143234 58.323265,134.105804 
	C56.476139,132.489426 54.958187,130.980865 53.223328,128.860275 
	C53.009888,127.501251 53.013348,126.754234 53.338142,126.113144 
	C57.106739,129.144745 60.554001,132.070419 64.124054,135.247131 
	C64.493416,135.999588 64.739967,136.501007 64.986519,137.002441 
z"/>
<path fill="#C41437" opacity="1.000000" stroke="none" 
	d="
M52.907356,133.613083 
	C52.845985,133.955902 52.675247,133.970184 52.248112,134.003510 
	C50.295422,132.362167 48.599129,130.701797 46.642063,128.851547 
	C45.702812,126.971916 45.024334,125.282150 44.170364,123.296051 
	C44.450394,122.986839 44.905910,122.973961 45.989136,123.057571 
	C47.408623,123.770752 48.200409,124.387451 49.052677,125.316261 
	C49.738556,126.421288 50.363953,127.214203 50.994228,128.004028 
	C50.999104,128.000916 50.995205,128.004440 50.995205,128.004440 
	C51.596130,129.764481 52.197056,131.524521 52.907356,133.613083 
z"/>
<path fill="#C71239" opacity="1.000000" stroke="none" 
	d="
M115.878906,145.297913 
	C116.002953,145.003983 116.498169,144.996017 117.146652,144.996307 
	C118.863808,144.999756 119.932495,145.002930 121.001175,145.006104 
	C118.917252,146.322647 116.833336,147.639175 114.367630,148.970947 
	C114.575516,147.854736 115.165184,146.723297 115.878906,145.297913 
z"/>
<path fill="#D51E2A" opacity="1.000000" stroke="none" 
	d="
M53.016811,126.007225 
	C53.013348,126.754234 53.009888,127.501251 53.007217,128.621490 
	C52.506504,128.743668 52.005001,128.492630 51.249352,128.123016 
	C50.995205,128.004440 50.999104,128.000916 50.921516,127.695114 
	C50.559917,126.593056 50.275906,125.796799 50.325653,124.996262 
	C51.104443,124.987679 51.549469,124.983376 52.171394,125.144104 
	C52.580086,125.533249 52.802925,125.765945 53.016811,126.007225 
z"/>
<path fill="#C71239" opacity="1.000000" stroke="none" 
	d="
M64.008339,146.006958 
	C64.007530,145.838654 64.006721,145.670349 64.005760,145.249557 
	C65.242714,145.803604 66.479805,146.610138 67.861099,147.706955 
	C67.198982,147.748169 66.392654,147.499084 65.293327,147.129639 
	C65.000320,147.009247 64.998718,146.999771 64.837112,146.827057 
	C64.460518,146.430908 64.238129,146.215118 64.008339,146.006958 
z"/>
<path fill="#AF0D44" opacity="1.000000" stroke="none" 
	d="
M58.952137,141.776581 
	C58.280918,141.500610 57.617825,140.985641 56.966011,140.238556 
	C57.476673,140.266312 57.976055,140.526169 58.721458,140.922760 
	C58.967480,141.059464 58.960266,141.537613 58.952137,141.776581 
z"/>
<path fill="#F3360D" opacity="1.000000" stroke="none" 
	d="
M57.004169,114.958725 
	C57.837555,115.303497 58.670940,115.648270 59.767082,116.002975 
	C68.556145,120.580612 77.028687,125.254547 85.656784,129.621109 
	C87.268250,130.436646 89.503448,130.019745 91.815033,130.119354 
	C92.155708,130.697922 92.132149,131.328735 92.226776,132.521637 
	C92.581535,133.390457 92.818092,133.697174 93.054649,134.003906 
	C93.054649,134.003906 93.032578,133.942703 92.865982,134.187988 
	C90.972816,134.620895 89.170692,135.225479 87.531952,134.928497 
	C76.928474,133.006943 67.793457,127.877205 59.171661,121.643494 
	C57.624012,120.524521 55.750507,119.856247 53.926109,118.719589 
	C53.544991,117.977158 53.265221,117.495018 52.988426,116.636215 
	C52.997063,115.506180 53.002716,114.752823 53.008373,113.999466 
	C53.008373,113.999466 53.506104,113.985573 53.754875,113.975433 
	C54.252235,113.771057 54.490376,113.564758 55.082039,113.363312 
	C55.965397,113.906403 56.484783,114.432564 57.004169,114.958725 
z"/>
<path fill="#EC3112" opacity="1.000000" stroke="none" 
	d="
M52.689865,113.872131 
	C53.002716,114.752823 52.997063,115.506180 52.650532,116.567612 
	C49.865856,115.254082 47.422054,113.632469 44.967819,111.773254 
	C44.957382,111.535637 44.947506,111.060059 44.853691,110.723740 
	C41.262775,105.866692 40.422291,99.233231 34.088257,96.968643 
	C34.088257,96.968643 34.031338,97.000374 33.998810,97.005112 
	C33.981422,94.637650 33.996559,92.265442 34.025543,89.449829 
	C36.834232,92.555573 39.721203,96.036797 42.400780,99.670944 
	C45.812099,104.297493 49.055542,109.047829 52.689865,113.872131 
z"/>
<path fill="#E1301D" opacity="1.000000" stroke="none" 
	d="
M163.196472,56.943932 
	C164.035660,57.404346 164.874847,57.864758 165.568970,58.798943 
	C165.496567,61.944336 165.016434,64.776962 165.739395,67.259193 
	C168.587326,77.037338 166.409821,85.767334 160.749893,94.119850 
	C159.994858,94.489838 159.494400,94.742210 159.044830,94.631096 
	C160.401077,89.844948 161.706451,85.422287 163.017151,80.629456 
	C163.026596,79.518921 163.030716,78.778542 163.284775,77.896301 
	C163.999588,77.168060 164.464447,76.581665 164.847961,75.608246 
	C163.172012,68.832413 161.577423,62.443592 160.297943,56.164825 
	C161.474197,56.497898 162.335327,56.720913 163.196472,56.943932 
z"/>
<path fill="#D4232A" opacity="1.000000" stroke="none" 
	d="
M161.004471,94.002235 
	C166.409821,85.767334 168.587326,77.037338 165.739395,67.259193 
	C165.016434,64.776962 165.496567,61.944336 165.687531,59.077564 
	C166.570847,59.363785 167.190536,59.845150 167.920471,60.984627 
	C168.027405,62.425320 168.024078,63.207909 168.065491,64.404343 
	C169.796951,73.474304 170.412186,82.010315 166.185822,90.268669 
	C165.329453,91.942047 165.363464,94.071098 164.815720,96.151749 
	C164.419464,96.532814 164.202240,96.759651 163.620789,96.996788 
	C162.504776,97.004822 161.760788,97.010002 161.011993,96.638092 
	C161.006302,95.508080 161.005386,94.755157 161.004471,94.002235 
z"/>
<path fill="#EB4112" opacity="1.000000" stroke="none" 
	d="
M159.982849,56.054771 
	C161.577423,62.443592 163.172012,68.832413 164.599976,75.748207 
	C163.967209,76.862846 163.501022,77.450508 163.034836,78.038162 
	C163.030716,78.778542 163.026596,79.518921 162.813599,80.827057 
	C162.070908,81.929321 161.537125,82.463829 161.002945,82.558029 
	C161.262299,79.518936 161.785660,76.913589 161.721252,74.322861 
	C161.619553,70.232285 162.630630,65.650383 158.008728,62.994003 
	C158.002823,62.997295 158.011734,62.987213 157.964447,62.615036 
	C156.972214,59.087646 156.027267,55.932430 155.082321,52.777214 
	C155.898117,53.085629 156.713928,53.394047 157.941559,54.144440 
	C158.896545,55.075867 159.439697,55.565319 159.982849,56.054771 
z"/>
<path fill="#F74B08" opacity="1.000000" stroke="none" 
	d="
M154.907486,52.509132 
	C156.027267,55.932430 156.972214,59.087646 157.664551,62.469788 
	C153.938705,59.078312 150.465454,55.459904 146.992218,51.841492 
	C148.445984,51.839554 149.899765,51.837612 151.789078,51.826935 
	C153.060638,51.959148 153.896637,52.100098 154.907486,52.509132 
z"/>
<path fill="#AF0D44" opacity="1.000000" stroke="none" 
	d="
M175.217178,91.693665 
	C174.932281,87.926926 174.830673,83.792068 174.919891,79.288651 
	C175.207321,83.055252 175.303894,87.190392 175.217178,91.693665 
z"/>
<path fill="#C1113C" opacity="1.000000" stroke="none" 
	d="
M170.274826,63.753098 
	C171.186813,65.578468 172.098801,67.403847 172.942932,69.847580 
	C172.817230,70.648048 172.759399,70.830162 172.455627,70.806351 
	C171.423874,68.451653 170.638031,66.302879 169.957504,64.053490 
	C170.062820,63.952873 170.274826,63.753098 170.274826,63.753098 
z"/>
<path fill="#D4232A" opacity="1.000000" stroke="none" 
	d="
M160.297943,56.164825 
	C159.439697,55.565319 158.896545,55.075867 158.205811,54.356743 
	C159.689957,54.840401 161.321671,55.553730 163.074936,56.605495 
	C162.335327,56.720913 161.474197,56.497898 160.297943,56.164825 
z"/>
<path fill="#C1113C" opacity="1.000000" stroke="none" 
	d="
M168.020767,63.990501 
	C168.024078,63.207909 168.027405,62.425320 168.056305,61.251244 
	C168.752945,61.625816 169.424011,62.391880 170.184937,63.455521 
	C170.274826,63.753098 170.062820,63.952873 169.654053,64.016861 
	C168.837128,64.050735 168.428940,64.020615 168.020767,63.990501 
z"/>
<path fill="#AF0D44" opacity="1.000000" stroke="none" 
	d="
M174.828064,75.623169 
	C174.558762,75.150246 174.322708,74.358490 174.079620,73.253098 
	C174.335510,73.727753 174.598389,74.516045 174.828064,75.623169 
z"/>
<path fill="#AF0D44" opacity="1.000000" stroke="none" 
	d="
M172.701553,71.012268 
	C172.759399,70.830162 172.817230,70.648048 172.973633,70.196793 
	C173.416580,70.705376 173.760971,71.483101 174.104614,72.585136 
	C173.911423,72.932610 173.718979,72.955788 173.207565,72.667313 
	C172.826233,71.907867 172.763901,71.460068 172.701553,71.012268 
z"/>
<path fill="#FE6101" opacity="1.000000" stroke="none" 
	d="
M116.863251,60.682915 
	C116.993866,60.465694 117.160591,60.281101 117.761368,59.889397 
	C118.437027,59.412449 118.714745,59.175232 118.992455,58.938011 
	C118.992455,58.938011 118.948860,58.987904 119.365280,58.974182 
	C123.379204,57.945103 127.146637,57.310997 130.525497,55.805073 
	C133.777084,54.355865 136.646530,53.524723 139.908585,55.480190 
	C141.013535,56.142559 142.360397,56.503025 143.645050,56.747803 
	C153.736313,58.670631 159.552567,68.661400 155.759018,78.271309 
	C154.392761,81.732346 151.954147,84.770065 149.758514,88.229385 
	C144.201218,92.999985 138.095413,95.719505 131.156357,96.665154 
	C118.497681,98.390274 107.876945,87.537163 111.205734,75.815422 
	C111.278938,74.423210 111.139771,73.211311 111.038986,71.655991 
	C111.386162,70.208115 111.694962,69.103653 112.331268,67.887566 
	C114.060265,65.411591 115.461761,63.047253 116.863251,60.682915 
M135.277130,89.961845 
	C144.067352,88.320221 149.129608,82.533684 152.072464,74.577942 
	C153.679047,70.234680 150.426605,62.247646 146.104034,61.757801 
	C138.783585,60.928230 131.312820,57.891327 124.100029,64.011917 
	C117.252312,69.822716 114.628548,74.771812 117.555641,81.897339 
	C120.612717,89.339241 125.376900,91.643059 135.277130,89.961845 
z"/>
<path fill="#FE5501" opacity="1.000000" stroke="none" 
	d="
M112.003761,67.999191 
	C111.694962,69.103653 111.386162,70.208115 110.827606,71.837341 
	C110.716347,73.573326 110.854858,74.784531 110.993370,75.995735 
	C107.876945,87.537163 118.497681,98.390274 131.156357,96.665154 
	C138.095413,95.719505 144.201218,92.999985 150.157745,88.229095 
	C151.868423,87.999664 152.933502,87.998917 153.893234,88.321030 
	C151.523239,91.424782 149.258606,94.205666 146.993973,96.986557 
	C143.484100,97.992928 139.995407,99.739365 136.459610,99.840645 
	C130.422531,100.013557 124.101273,100.085709 118.359985,98.515762 
	C109.223618,96.017456 104.724724,87.698921 105.652634,77.953354 
	C105.789230,76.518684 105.377960,75.031868 105.031868,73.221176 
	C106.117523,71.404243 107.391479,69.935318 109.255188,68.231415 
	C110.564552,67.997360 111.284157,67.998276 112.003761,67.999191 
z"/>
<path fill="#FE6930" opacity="1.000000" stroke="none" 
	d="
M80.207146,82.232933 
	C78.905624,76.110619 76.667389,70.064919 83.005898,65.017365 
	C84.465355,65.016487 85.205040,65.085190 85.944733,65.153885 
	C89.092323,67.647339 92.239914,70.140793 95.649155,72.833359 
	C95.176781,74.710960 94.442757,76.389450 93.452370,78.326248 
	C90.582001,79.921341 88.056458,81.502037 85.317856,82.495247 
	C83.879974,83.016731 82.068977,82.509392 80.207146,82.232933 
z"/>
<path fill="#FB5705" opacity="1.000000" stroke="none" 
	d="
M153.998581,87.998169 
	C152.933502,87.998917 151.868423,87.999664 150.404129,88.000687 
	C151.954147,84.770065 154.392761,81.732346 155.759018,78.271309 
	C159.552567,68.661400 153.736313,58.670631 143.645050,56.747803 
	C142.360397,56.503025 141.013535,56.142559 139.908585,55.480190 
	C136.646530,53.524723 133.777084,54.355865 130.525497,55.805073 
	C127.146637,57.310997 123.379204,57.945103 119.350189,58.944668 
	C119.193787,58.411198 119.468895,57.893517 119.821198,57.092133 
	C119.898392,56.808426 120.199760,56.617905 120.612663,56.510132 
	C121.252899,56.165199 121.480240,55.928032 121.707573,55.690868 
	C122.155792,55.406490 122.604019,55.122112 123.614960,54.729256 
	C124.648247,54.249802 125.118820,53.878826 125.589394,53.507851 
	C125.589394,53.507854 125.620972,53.416336 125.989090,53.489395 
	C127.225746,53.054283 128.094284,52.546104 128.962814,52.037930 
	C128.962814,52.037930 128.995544,51.960098 129.036346,51.973198 
	C134.793198,51.849812 140.509216,51.713326 146.608734,51.709167 
	C150.465454,55.459904 153.938705,59.078312 157.711853,62.841965 
	C158.011734,62.987213 158.002823,62.997295 158.056091,63.411644 
	C159.612640,72.372063 160.032120,80.733826 153.998581,87.998169 
z"/>
<path fill="#FB5705" opacity="1.000000" stroke="none" 
	d="
M112.331268,67.887558 
	C111.284157,67.998276 110.564552,67.997360 109.486267,67.994156 
	C111.499413,65.653496 113.871239,63.315128 116.553162,60.829842 
	C115.461761,63.047253 114.060265,65.411591 112.331268,67.887558 
z"/>
<path fill="#FB5705" opacity="1.000000" stroke="none" 
	d="
M118.743973,59.061111 
	C118.714745,59.175232 118.437027,59.412449 117.925819,59.799221 
	C117.960052,59.693924 118.227776,59.439068 118.743973,59.061111 
z"/>
<path fill="#D42725" opacity="1.000000" stroke="none" 
	d="
M44.947506,111.060059 
	C44.947506,111.060059 44.957382,111.535637 45.057243,112.117737 
	C47.436237,116.792931 49.715366,120.886009 51.994499,124.979080 
	C51.549469,124.983376 51.104443,124.987679 50.075775,124.996208 
	C49.492142,125.000443 48.992199,125.004143 48.992195,125.004150 
	C48.200409,124.387451 47.408623,123.770752 46.330742,123.048187 
	C43.605713,119.000702 41.166786,115.059082 38.392181,111.037231 
	C37.131008,107.873833 36.205509,104.790665 35.504074,101.503395 
	C38.801262,104.552887 41.874386,107.806473 44.947506,111.060059 
z"/>
<path fill="#E42A1B" opacity="1.000000" stroke="none" 
	d="
M44.853691,110.723740 
	C41.874386,107.806473 38.801262,104.552887 35.452194,101.135880 
	C34.827808,99.869690 34.479370,98.766907 34.109596,97.316391 
	C40.422291,99.233231 41.262775,105.866692 44.853691,110.723740 
z"/>
<path fill="#C74A18" opacity="1.000000" stroke="none" 
	d="
M128.659576,52.036560 
	C128.094284,52.546104 127.225746,53.054283 126.035355,53.503639 
	C126.594452,52.974945 127.475403,52.505066 128.659576,52.036560 
z"/>
<path fill="#C74A18" opacity="1.000000" stroke="none" 
	d="
M125.290680,53.555550 
	C125.118820,53.878826 124.648247,54.249802 123.868156,54.644554 
	C124.036415,54.313305 124.514183,53.958279 125.290680,53.555550 
z"/>
<path fill="#C74A18" opacity="1.000000" stroke="none" 
	d="
M121.453033,55.731865 
	C121.480240,55.928032 121.252899,56.165199 120.785904,56.468056 
	C120.763657,56.280121 120.981071,56.026493 121.453033,55.731865 
z"/>
<path fill="#C1113C" opacity="1.000000" stroke="none" 
	d="
M64.166183,146.177582 
	C64.238129,146.215118 64.460518,146.430908 64.833694,146.824554 
	C64.761345,146.787415 64.538727,146.571899 64.166183,146.177582 
z"/>
<path fill="#D83B04" opacity="1.000000" stroke="none" 
	d="
M85.884079,64.827515 
	C85.205040,65.085190 84.465355,65.016487 83.357391,64.898117 
	C83.482399,64.000977 83.975677,63.153507 84.731087,62.151035 
	C85.269951,62.831070 85.546692,63.666111 85.884079,64.827515 
z"/>
<path fill="#FE9A49" opacity="1.000000" stroke="none" 
	d="
M107.760803,110.099655 
	C107.844833,109.447800 107.928864,108.795952 108.312714,107.677551 
	C109.091255,106.817383 109.569992,106.423759 110.048721,106.030136 
	C110.225266,106.006157 110.401810,105.982185 111.170013,105.952400 
	C113.106583,106.674881 114.451485,107.403168 115.796379,108.131462 
	C114.634186,112.197235 112.518150,114.096565 108.116631,110.956665 
	C107.855606,110.515549 107.760803,110.099655 107.760803,110.099655 
z"/>
<path fill="#FD4A01" opacity="1.000000" stroke="none" 
	d="
M115.906143,107.870049 
	C114.451485,107.403168 113.106583,106.674881 111.429581,105.888779 
	C113.152954,105.272537 115.486115,103.945793 115.906143,107.870049 
z"/>
<path fill="#FA3E04" opacity="1.000000" stroke="none" 
	d="
M79.211853,89.025284 
	C80.400063,88.312309 81.865471,87.719246 83.668076,87.063904 
	C82.499870,87.716141 80.994461,88.430664 79.211853,89.025284 
z"/>
<path fill="#FA3E04" opacity="1.000000" stroke="none" 
	d="
M69.059128,90.865829 
	C69.656960,90.468674 70.501083,90.229996 71.674873,89.976410 
	C71.104828,90.315781 70.205116,90.670044 69.059128,90.865829 
z"/>
<path fill="#FA3E04" opacity="1.000000" stroke="none" 
	d="
M87.179588,85.875565 
	C87.407776,85.673607 87.918144,85.382416 88.707291,84.995644 
	C88.477959,85.195488 87.969864,85.490913 87.179588,85.875565 
z"/>
<path fill="#FD4A01" opacity="1.000000" stroke="none" 
	d="
M109.762833,106.155182 
	C109.569992,106.423759 109.091255,106.817383 108.328064,107.349129 
	C108.521393,107.084908 108.999161,106.682564 109.762833,106.155182 
z"/>
<path fill="#FD4A01" opacity="1.000000" stroke="none" 
	d="
M107.737251,110.206833 
	C107.760803,110.099655 107.855606,110.515549 107.863518,110.728012 
	C107.752098,110.747704 107.699524,110.538887 107.737251,110.206833 
z"/>
<path fill="#F74B08" opacity="1.000000" stroke="none" 
	d="
M153.893234,88.321030 
	C160.032120,80.733826 159.612640,72.372063 158.062012,63.408348 
	C162.630630,65.650383 161.619553,70.232285 161.721252,74.322861 
	C161.785660,76.913589 161.262299,79.518936 160.998978,82.557358 
	C160.995407,82.997002 160.984787,82.993835 160.729309,83.130234 
	C159.991974,83.850227 159.510101,84.433830 159.021240,85.347214 
	C159.003464,86.116661 158.992676,86.556328 158.726227,87.131927 
	C157.988403,87.851608 157.506256,88.435364 157.020355,89.265938 
	C157.016602,89.512764 157.005142,90.006332 156.732635,90.198975 
	C153.308960,93.260803 150.157776,96.130005 147.006592,98.999207 
	C147.004074,98.552071 147.001556,98.104935 146.996506,97.322174 
	C149.258606,94.205666 151.523239,91.424782 153.893234,88.321030 
z"/>
<path fill="#F3400B" opacity="1.000000" stroke="none" 
	d="
M147.002853,99.330383 
	C150.157776,96.130005 153.308960,93.260803 156.688202,90.563759 
	C155.604111,93.820641 154.291962,96.905373 152.718353,100.161171 
	C151.304291,101.221497 150.151672,102.110756 148.625031,103.000092 
	C147.503189,103.002464 146.755371,103.004738 146.007553,103.007019 
	C146.007553,103.007019 146.000931,103.000877 146.123016,102.749466 
	C146.492950,101.994118 146.740814,101.490189 146.988678,100.986267 
	C146.992157,100.544693 146.995636,100.103134 147.002853,99.330383 
z"/>
<path fill="#FA3E04" opacity="1.000000" stroke="none" 
	d="
M146.677765,101.049484 
	C146.740814,101.490189 146.492950,101.994118 146.119202,102.749023 
	C145.549026,102.998650 145.104782,102.997299 144.327148,102.993973 
	C144.784821,102.365562 145.575836,101.739136 146.677765,101.049484 
z"/>
<path fill="#F2360D" opacity="1.000000" stroke="none" 
	d="
M145.897369,103.328491 
	C146.755371,103.004738 147.503189,103.002464 148.541321,103.352119 
	C143.669861,115.194893 135.115005,123.355919 123.654007,129.116852 
	C120.538147,130.323410 117.535881,131.043671 115.049805,132.592499 
	C109.720886,135.912399 104.276108,136.673096 98.387192,134.642105 
	C98.905792,133.344040 99.424393,132.045975 99.949028,130.392914 
	C101.962875,133.162079 104.390587,131.919556 107.244041,131.225204 
	C123.841797,127.186378 136.325699,117.573082 145.897369,103.328491 
z"/>
<path fill="#EC3112" opacity="1.000000" stroke="none" 
	d="
M98.055740,134.662552 
	C104.276108,136.673096 109.720886,135.912399 115.049805,132.592499 
	C117.535881,131.043671 120.538147,130.323410 123.553902,129.437347 
	C123.198723,131.091980 122.596092,132.536880 121.656525,134.035187 
	C120.208290,135.046616 119.097000,136.004623 117.986893,136.971069 
	C117.988075,136.979477 117.994049,136.994980 117.620865,136.994904 
	C116.501137,137.003677 115.754593,137.012512 114.673141,137.016083 
	C113.891685,137.006622 113.445145,137.002396 112.794266,136.933548 
	C112.059204,137.242035 111.528465,137.615143 110.624893,137.991653 
	C109.506386,138.000992 108.760712,138.006943 107.747696,138.102570 
	C106.987099,138.461090 106.493851,138.729935 105.584869,139.000183 
	C103.783379,139.005081 102.397629,139.008591 100.637321,139.015244 
	C98.841988,139.344543 97.421204,139.670731 95.611633,139.951385 
	C93.149178,139.606812 91.075508,139.307770 88.727814,138.787567 
	C80.965530,135.713898 73.477287,132.861435 65.741852,130.007019 
	C65.494675,130.005081 65.000328,129.999390 64.813385,129.730194 
	C63.083485,128.308411 61.540524,127.155823 59.764160,125.847107 
	C59.020336,125.460457 58.509914,125.229919 57.895370,124.684280 
	C56.532768,123.245918 55.274288,122.122665 54.015842,120.662949 
	C54.019733,119.877609 54.023590,119.428749 54.027451,118.979881 
	C55.750507,119.856247 57.624012,120.524521 59.171661,121.643494 
	C67.793457,127.877205 76.928474,133.006943 87.531952,134.928497 
	C89.170692,135.225479 90.972816,134.620895 92.898064,134.182617 
	C94.639259,134.182297 96.181778,134.432648 98.055740,134.662552 
z"/>
<path fill="#EC3112" opacity="1.000000" stroke="none" 
	d="
M92.938019,133.732819 
	C92.818092,133.697174 92.581535,133.390457 92.187256,132.835037 
	C92.293488,132.878128 92.557434,133.169937 92.938019,133.732819 
z"/>
<path fill="#FE984F" opacity="1.000000" stroke="none" 
	d="
M57.354927,114.950882 
	C56.484783,114.432564 55.965397,113.906403 55.244377,113.191162 
	C56.687508,111.774132 58.332272,110.546173 60.317421,109.378952 
	C60.815353,109.680923 61.003403,109.895432 61.393417,110.211533 
	C61.683071,110.999756 61.801262,111.659637 61.950687,112.654419 
	C60.556511,113.640549 59.131100,114.291786 57.354927,114.950882 
z"/>
<path fill="#D4232A" opacity="1.000000" stroke="none" 
	d="
M142.981216,128.984619 
	C139.830185,130.596085 136.688843,132.214996 132.912216,133.854736 
	C131.520676,133.523590 130.764389,133.171616 130.001251,132.618408 
	C129.994385,132.417191 129.977036,132.014862 130.157120,131.853760 
	C130.575684,131.475845 130.806488,131.251129 131.285339,130.884308 
	C132.033630,130.176498 132.526138,129.602890 133.259216,129.017120 
	C133.499802,129.004974 133.981003,128.981354 134.337128,128.937988 
	C146.013519,122.702492 152.496155,112.639946 157.103302,100.738739 
	C157.466507,99.988518 157.735931,99.501396 158.378448,99.010986 
	C159.496719,99.001678 160.241898,98.995644 160.938660,99.352249 
	C159.923386,102.476364 158.956528,105.237846 157.863373,108.245865 
	C157.486969,108.986938 157.236877,109.481468 156.671097,110.098404 
	C154.901184,112.479668 153.446976,114.738518 151.829437,117.248245 
	C151.106689,118.324165 150.547287,119.149208 149.668381,120.082161 
	C147.909180,121.802757 146.469452,123.415459 145.029739,125.028152 
	C144.773849,125.520729 144.517944,126.013306 143.971558,126.980682 
	C143.447784,127.962944 143.214493,128.470383 142.981201,128.977829 
	C142.981201,128.977829 142.990891,128.992081 142.981216,128.984619 
z"/>
<path fill="#CC1932" opacity="1.000000" stroke="none" 
	d="
M172.455627,70.806351 
	C172.763901,71.460068 172.826233,71.907867 172.917999,72.693375 
	C171.038635,79.795311 169.129868,86.559540 166.909790,93.858704 
	C166.061310,94.925789 165.524155,95.457924 164.987000,95.990067 
	C165.363464,94.071098 165.329453,91.942047 166.185822,90.268669 
	C170.412186,82.010315 169.796951,73.474304 168.065491,64.404343 
	C168.428940,64.020615 168.837128,64.050735 169.548737,64.117477 
	C170.638031,66.302879 171.423874,68.451653 172.455627,70.806351 
z"/>
<path fill="#CC1932" opacity="1.000000" stroke="none" 
	d="
M157.989685,107.999321 
	C158.956528,105.237846 159.923386,102.476364 160.943405,99.023270 
	C161.003311,97.892822 161.010056,97.454002 161.016785,97.015175 
	C161.760788,97.010002 162.504776,97.004822 163.582123,97.360748 
	C163.613327,99.152969 163.311172,100.584091 163.009018,102.015213 
	C163.005692,102.456406 163.002365,102.897591 162.738297,103.805534 
	C161.988083,104.854607 161.498611,105.436928 161.009140,106.019249 
	C161.009140,106.019249 161.006851,106.508842 160.695374,106.829285 
	C159.585815,107.432930 158.787750,107.716125 157.989685,107.999321 
z"/>
<path fill="#CB1634" opacity="1.000000" stroke="none" 
	d="
M157.863373,108.245865 
	C158.787750,107.716125 159.585815,107.432930 160.692413,107.074066 
	C159.200516,109.900787 157.400116,112.803169 155.389221,115.515625 
	C155.781418,113.542465 156.384094,111.759224 156.986786,109.975990 
	C157.236877,109.481468 157.486969,108.986938 157.863373,108.245865 
z"/>
<path fill="#CC1932" opacity="1.000000" stroke="none" 
	d="
M156.671097,110.098404 
	C156.384094,111.759224 155.781418,113.542465 155.090881,115.667755 
	C154.795181,116.243538 154.578888,116.469170 153.846008,116.844635 
	C152.889496,117.000832 152.441116,116.999107 151.992752,116.997375 
	C153.446976,114.738518 154.901184,112.479668 156.671097,110.098404 
z"/>
<path fill="#CB1634" opacity="1.000000" stroke="none" 
	d="
M163.312439,101.855797 
	C163.311172,100.584091 163.613327,99.152969 163.954132,97.357887 
	C164.202240,96.759651 164.419464,96.532814 164.815720,96.151741 
	C165.524155,95.457924 166.061310,94.925789 166.801331,94.195297 
	C165.874725,96.563431 164.745285,99.129906 163.312439,101.855797 
z"/>
<path fill="#CC1932" opacity="1.000000" stroke="none" 
	d="
M145.342026,124.929047 
	C146.469452,123.415459 147.909180,121.802757 149.672333,120.422470 
	C150.000198,121.108124 150.004608,121.561378 150.009018,122.014633 
	C148.557449,122.953072 147.105881,123.891502 145.342026,124.929047 
z"/>
<path fill="#CB1634" opacity="1.000000" stroke="none" 
	d="
M150.322052,121.896774 
	C150.004608,121.561378 150.000198,121.108124 149.991821,120.314560 
	C150.547287,119.149208 151.106689,118.324165 151.829437,117.248245 
	C152.441116,116.999107 152.889496,117.000832 153.674255,117.004349 
	C152.885468,118.597069 151.760269,120.187996 150.322052,121.896774 
z"/>
<path fill="#CB1634" opacity="1.000000" stroke="none" 
	d="
M161.265350,105.881577 
	C161.498611,105.436928 161.988083,104.854607 162.734390,104.136414 
	C162.501343,104.581665 162.011444,105.162781 161.265350,105.881577 
z"/>
<path fill="#CB1634" opacity="1.000000" stroke="none" 
	d="
M143.185364,128.889954 
	C143.214493,128.470383 143.447784,127.962944 143.843719,127.227020 
	C143.800735,127.599731 143.595123,128.200912 143.185364,128.889954 
z"/>
<path fill="#CE1832" opacity="1.000000" stroke="none" 
	d="
M121.331894,145.001953 
	C119.932495,145.002930 118.863808,144.999756 117.394257,144.992950 
	C118.925125,143.212921 120.856857,141.436523 123.058075,139.103027 
	C123.549812,138.032516 123.772064,137.519135 123.998611,136.997284 
	C124.002907,136.988815 124.005569,136.971222 124.377892,136.947723 
	C124.998268,136.906296 125.246330,136.888382 125.719757,137.071350 
	C126.964958,137.887878 127.984795,138.503510 129.004623,139.119141 
	C129.495590,139.358917 129.986557,139.598709 130.739151,139.919647 
	C129.172409,140.853607 127.344032,141.706406 124.999466,142.912399 
	C123.984024,143.839569 123.484787,144.413574 122.985535,144.987579 
	C122.544556,144.990982 122.103584,144.994400 121.331894,145.001953 
z"/>
<path fill="#C71239" opacity="1.000000" stroke="none" 
	d="
M123.320450,144.990234 
	C123.484787,144.413574 123.984024,143.839569 124.741394,143.131714 
	C124.998894,143.441605 124.998253,143.885376 124.996017,144.661819 
	C124.548073,144.993973 124.101715,144.993439 123.320450,144.990234 
z"/>
<path fill="#F67F66" opacity="1.000000" stroke="none" 
	d="
M129.292297,138.928024 
	C127.984795,138.503510 126.964958,137.887878 125.645668,136.827362 
	C125.271469,136.230499 125.196732,136.078522 125.176346,135.627686 
	C125.277237,134.926544 125.323769,134.524261 125.536942,133.981339 
	C125.887932,133.612762 126.033424,133.362244 126.375534,133.045578 
	C126.611000,133.002014 127.074562,132.881683 127.440506,132.907379 
	C128.540344,132.895248 129.274231,132.857452 130.008118,132.819641 
	C130.764389,133.171616 131.520676,133.523590 132.577087,133.967834 
	C131.778137,135.619019 130.679062,137.177963 129.292297,138.928024 
z"/>
<path fill="#DA2325" opacity="1.000000" stroke="none" 
	d="
M90.003380,145.008453 
	C86.969948,145.000198 83.714401,145.698471 80.951477,144.829803 
	C75.918648,143.247482 71.178085,140.735550 66.532310,138.354309 
	C68.596504,138.699539 70.411598,139.444168 72.298416,139.873718 
	C75.844124,140.680954 79.431267,141.306198 83.399902,142.007050 
	C84.861259,142.011459 85.923882,142.015930 87.132011,142.289032 
	C88.186142,143.374588 89.094757,144.191528 90.003380,145.008453 
z"/>
<path fill="#DE2720" opacity="1.000000" stroke="none" 
	d="
M90.335068,145.008575 
	C89.094757,144.191528 88.186142,143.374588 87.568237,142.287292 
	C93.906479,141.671494 99.954002,141.326080 106.330261,140.980225 
	C107.096977,140.975082 107.534950,140.970367 108.231934,140.976685 
	C108.663582,140.995850 108.836220,141.003952 109.007858,141.344788 
	C109.005714,142.121307 109.004578,142.565079 109.003448,143.008835 
	C106.275536,143.674026 103.547623,144.339233 99.968445,145.004547 
	C96.742668,145.006119 94.368149,145.007584 91.993637,145.009064 
	C91.551346,145.008942 91.109047,145.008820 90.335068,145.008575 
z"/>
<path fill="#DE2720" opacity="1.000000" stroke="none" 
	d="
M83.001175,142.007111 
	C79.431267,141.306198 75.844124,140.680954 72.298416,139.873718 
	C70.411598,139.444168 68.596504,138.699539 66.371857,138.051147 
	C65.760040,137.793289 65.532524,137.574020 65.149323,137.174896 
	C64.739967,136.501007 64.493416,135.999588 64.515915,135.267960 
	C70.857033,137.360886 76.929100,139.684006 83.001175,142.007111 
z"/>
<path fill="#DA2325" opacity="1.000000" stroke="none" 
	d="
M109.290665,143.110382 
	C109.004578,142.565079 109.005714,142.121307 109.380554,141.341370 
	C110.499947,140.999878 111.245636,140.994568 112.328781,140.919388 
	C113.780800,140.569839 114.895348,140.290146 116.009903,140.010452 
	C113.865898,141.077606 111.721893,142.144760 109.290665,143.110382 
z"/>
<path fill="#DA2325" opacity="1.000000" stroke="none" 
	d="
M92.206284,145.293808 
	C94.368149,145.007584 96.742668,145.006119 99.562241,145.007645 
	C97.667747,147.737274 95.110222,147.551575 92.206284,145.293808 
z"/>
<path fill="#DA2325" opacity="1.000000" stroke="none" 
	d="
M123.994316,137.005737 
	C123.772064,137.519135 123.549812,138.032516 123.171867,138.779480 
	C121.580200,139.286072 120.144234,139.559082 118.352875,139.538696 
	C117.996346,138.495178 117.995201,137.745087 117.994049,136.994980 
	C117.994049,136.994980 117.988075,136.979477 118.416466,136.980377 
	C120.561340,136.989441 122.277832,136.997589 123.994316,137.005737 
z"/>
<path fill="#DE2720" opacity="1.000000" stroke="none" 
	d="
M117.620872,136.994904 
	C117.995201,137.745087 117.996346,138.495178 117.996857,139.620041 
	C117.554718,139.998184 117.113220,140.001587 116.340813,140.007721 
	C114.895348,140.290146 113.780800,140.569839 112.479286,140.644012 
	C113.197563,139.299438 114.102806,138.160400 115.008041,137.021347 
	C115.754593,137.012512 116.501137,137.003677 117.620872,136.994904 
z"/>
<path fill="#E42A1B" opacity="1.000000" stroke="none" 
	d="
M83.399902,142.007050 
	C76.929100,139.684006 70.857033,137.360886 64.393112,135.016937 
	C60.554001,132.070419 57.106739,129.144745 53.338142,126.113144 
	C52.802925,125.765945 52.580086,125.533249 52.171394,125.144104 
	C49.715366,120.886009 47.436237,116.792931 45.067680,112.355354 
	C47.422054,113.632469 49.865856,115.254082 52.647552,116.944290 
	C53.265221,117.495018 53.544991,117.977158 53.926105,118.719589 
	C54.023590,119.428749 54.019733,119.877609 54.116440,120.978943 
	C55.477837,122.754074 56.738663,123.876732 57.999496,124.999390 
	C58.509914,125.229919 59.020336,125.460457 59.874790,126.171295 
	C61.812660,127.767532 63.406494,128.883469 65.000328,129.999390 
	C65.000328,129.999390 65.494675,130.005081 65.871513,130.327515 
	C71.923370,133.361908 77.534096,136.224625 83.314262,138.690094 
	C84.956619,139.390625 87.092369,138.934448 89.001846,139.008743 
	C91.075508,139.307770 93.149178,139.606812 95.905640,140.104187 
	C98.062920,139.872375 99.537399,139.442245 101.011871,139.012115 
	C102.397629,139.008591 103.783379,139.005081 105.585281,139.330627 
	C106.001457,140.100021 106.001488,140.540344 106.001526,140.980667 
	C99.954002,141.326080 93.906479,141.671494 87.422729,142.018677 
	C85.923882,142.015930 84.861259,142.011459 83.399902,142.007050 
z"/>
<path fill="#CE1832" opacity="1.000000" stroke="none" 
	d="
M49.052681,125.316254 
	C48.992199,125.004143 49.492142,125.000443 49.742020,125.000488 
	C50.275906,125.796799 50.559917,126.593056 50.916641,127.698219 
	C50.363953,127.214203 49.738556,126.421288 49.052681,125.316254 
z"/>
<path fill="#EA3814" opacity="1.000000" stroke="none" 
	d="
M152.979813,99.990097 
	C154.291962,96.905373 155.604111,93.820641 156.960693,90.371124 
	C157.005142,90.006332 157.016602,89.512764 157.274628,89.127914 
	C158.015747,88.160721 158.498825,87.578362 158.981903,86.996002 
	C158.992676,86.556328 159.003464,86.116661 159.275543,85.209663 
	C160.019485,84.159508 160.502136,83.576675 160.984787,82.993835 
	C160.984787,82.993835 160.995407,82.997002 160.999374,82.997665 
	C161.537125,82.463829 162.070908,81.929321 162.808258,81.197220 
	C161.706451,85.422287 160.401077,89.844948 159.046890,94.632599 
	C158.998077,94.997574 158.985825,94.989510 158.700684,95.125847 
	C157.278442,96.508018 156.141327,97.753853 154.751770,99.124374 
	C153.992828,99.496078 153.486313,99.743080 152.979813,99.990097 
z"/>
<path fill="#DE2720" opacity="1.000000" stroke="none" 
	d="
M161.011993,96.638092 
	C161.010056,97.454002 161.003311,97.892822 160.991837,98.660629 
	C160.241898,98.995644 159.496719,99.001678 158.453888,98.673660 
	C158.432770,97.222923 158.709305,96.106216 158.985840,94.989510 
	C158.985825,94.989510 158.998077,94.997574 158.996002,94.996078 
	C159.494400,94.742210 159.994858,94.489838 160.749893,94.119850 
	C161.005386,94.755157 161.006302,95.508080 161.011993,96.638092 
z"/>
<path fill="#EA3814" opacity="1.000000" stroke="none" 
	d="
M163.284775,77.896309 
	C163.501022,77.450508 163.967209,76.862846 164.681351,76.135223 
	C164.464447,76.581665 163.999588,77.168060 163.284775,77.896309 
z"/>
<path fill="#FE6B01" opacity="1.000000" stroke="none" 
	d="
M134.868866,90.016945 
	C125.376900,91.643059 120.612717,89.339241 117.555641,81.897339 
	C114.628548,74.771812 117.252312,69.822716 124.100029,64.011917 
	C131.312820,57.891327 138.783585,60.928230 146.104034,61.757801 
	C150.426605,62.247646 153.679047,70.234680 152.072464,74.577942 
	C149.129608,82.533684 144.067352,88.320221 134.868866,90.016945 
z"/>
<path fill="#FB5705" opacity="1.000000" stroke="none" 
	d="
M111.205734,75.815422 
	C110.854858,74.784531 110.716347,73.573326 110.789223,72.180771 
	C111.139771,73.211311 111.278938,74.423210 111.205734,75.815422 
z"/>
<path fill="#F3400B" opacity="1.000000" stroke="none" 
	d="
M158.726227,87.131927 
	C158.498825,87.578362 158.015747,88.160721 157.278381,88.881088 
	C157.506256,88.435364 157.988403,87.851608 158.726227,87.131927 
z"/>
<path fill="#F3400B" opacity="1.000000" stroke="none" 
	d="
M160.729309,83.130234 
	C160.502136,83.576675 160.019485,84.159508 159.282532,84.879890 
	C159.510101,84.433830 159.991974,83.850227 160.729309,83.130234 
z"/>
<path fill="#EA2F15" opacity="1.000000" stroke="none" 
	d="
M152.718353,100.161163 
	C153.486313,99.743080 153.992828,99.496078 154.750824,99.457916 
	C155.001740,100.111481 155.001175,100.556198 154.817215,101.284973 
	C149.750397,108.364899 144.921600,115.201057 139.954926,121.935532 
	C138.131516,124.407959 135.981857,126.639778 133.981003,128.981354 
	C133.981003,128.981354 133.499802,129.004974 132.998444,129.144852 
	C132.007919,129.862656 131.518753,130.440582 131.029587,131.018509 
	C130.806488,131.251129 130.575684,131.475845 129.851929,131.883484 
	C128.602615,132.343445 127.838593,132.612564 127.074562,132.881683 
	C127.074562,132.881683 126.611000,133.002014 126.092453,133.116028 
	C125.049568,133.484283 124.525238,133.738541 123.666382,133.992035 
	C122.885719,133.988083 122.439590,133.984924 121.993462,133.981781 
	C122.596092,132.536880 123.198723,131.091980 123.901466,129.326599 
	C135.115005,123.355919 143.669861,115.194893 148.915344,103.352036 
	C150.151672,102.110756 151.304291,101.221497 152.718353,100.161163 
z"/>
<path fill="#EA2E15" opacity="1.000000" stroke="none" 
	d="
M88.727814,138.787567 
	C87.092369,138.934448 84.956619,139.390625 83.314262,138.690094 
	C77.534096,136.224625 71.923370,133.361908 66.118698,130.329437 
	C73.477287,132.861435 80.965530,135.713898 88.727814,138.787567 
z"/>
<path fill="#E42A1B" opacity="1.000000" stroke="none" 
	d="
M121.656525,134.035187 
	C122.439590,133.984924 122.885719,133.988083 124.008698,134.024429 
	C124.913795,134.079071 125.142036,134.100525 125.370285,134.121964 
	C125.323769,134.524261 125.277237,134.926544 124.983109,135.795105 
	C124.492195,136.497971 124.248878,136.734604 124.005569,136.971222 
	C124.005569,136.971222 124.002907,136.988815 123.998611,136.997284 
	C122.277832,136.997589 120.561340,136.989441 118.415283,136.971970 
	C119.097000,136.004623 120.208290,135.046616 121.656525,134.035187 
z"/>
<path fill="#E42A1B" opacity="1.000000" stroke="none" 
	d="
M114.673141,137.016083 
	C114.102806,138.160400 113.197563,139.299438 112.141830,140.713867 
	C111.245636,140.994568 110.499947,140.999878 109.381561,141.008621 
	C108.836220,141.003952 108.663582,140.995850 108.238472,140.608185 
	C107.995689,139.490067 108.005363,138.751465 108.015038,138.012878 
	C108.760712,138.006943 109.506386,138.000992 110.890198,137.900726 
	C112.018417,137.536987 112.508507,137.267578 112.998596,136.998169 
	C113.445145,137.002396 113.891685,137.006622 114.673141,137.016083 
z"/>
<path fill="#EA2E15" opacity="1.000000" stroke="none" 
	d="
M64.813385,129.730194 
	C63.406494,128.883469 61.812660,127.767532 60.108192,126.327423 
	C61.540524,127.155823 63.083485,128.308411 64.813385,129.730194 
z"/>
<path fill="#EA2E15" opacity="1.000000" stroke="none" 
	d="
M57.895370,124.684280 
	C56.738663,123.876732 55.477837,122.754074 54.116409,121.315414 
	C55.274288,122.122665 56.532768,123.245918 57.895370,124.684280 
z"/>
<path fill="#EA2E15" opacity="1.000000" stroke="none" 
	d="
M100.637321,139.015228 
	C99.537399,139.442245 98.062920,139.872375 96.294434,140.149719 
	C97.421204,139.670731 98.841988,139.344543 100.637321,139.015228 
z"/>
<path fill="#EA2F15" opacity="1.000000" stroke="none" 
	d="
M107.747696,138.102570 
	C108.005363,138.751465 107.995689,139.490067 107.979462,140.597137 
	C107.534950,140.970367 107.096977,140.975082 106.330261,140.980225 
	C106.001488,140.540344 106.001457,140.100021 106.001007,139.329239 
	C106.493851,138.729935 106.987099,138.461090 107.747696,138.102570 
z"/>
<path fill="#EA2F15" opacity="1.000000" stroke="none" 
	d="
M112.794266,136.933548 
	C112.508507,137.267578 112.018417,137.536987 111.263031,137.897324 
	C111.528465,137.615143 112.059204,137.242035 112.794266,136.933548 
z"/>
<path fill="#DE2720" opacity="1.000000" stroke="none" 
	d="
M134.337128,128.937988 
	C135.981857,126.639778 138.131516,124.407959 139.954926,121.935532 
	C144.921600,115.201057 149.750397,108.364899 155.151947,101.284592 
	C156.116562,101.000702 156.563034,101.001266 157.009521,101.001831 
	C152.496155,112.639946 146.013519,122.702492 134.337128,128.937988 
z"/>
<path fill="#E1301D" opacity="1.000000" stroke="none" 
	d="
M157.103302,100.738739 
	C156.563034,101.001266 156.116562,101.000702 155.335342,101.000534 
	C155.001175,100.556198 155.001740,100.111481 155.003265,99.333221 
	C156.141327,97.753853 157.278442,96.508018 158.700699,95.125847 
	C158.709305,96.106216 158.432770,97.222923 158.080811,98.676949 
	C157.735931,99.501396 157.466507,99.988518 157.103302,100.738739 
z"/>
<path fill="#DE2720" opacity="1.000000" stroke="none" 
	d="
M131.285339,130.884308 
	C131.518753,130.440582 132.007919,129.862656 132.757874,129.157013 
	C132.526138,129.602890 132.033630,130.176498 131.285339,130.884308 
z"/>
<path fill="#DE2720" opacity="1.000000" stroke="none" 
	d="
M127.440506,132.907379 
	C127.838593,132.612564 128.602615,132.343445 129.671844,132.044586 
	C129.977036,132.014862 129.994385,132.417191 130.001251,132.618408 
	C129.274231,132.857452 128.540344,132.895248 127.440506,132.907379 
z"/>
<path fill="#DE2720" opacity="1.000000" stroke="none" 
	d="
M124.377892,136.947723 
	C124.248878,136.734604 124.492195,136.497971 124.928741,136.093933 
	C125.196732,136.078522 125.271469,136.230499 125.420303,136.626465 
	C125.246330,136.888382 124.998268,136.906296 124.377892,136.947723 
z"/>
<path fill="#DE2720" opacity="1.000000" stroke="none" 
	d="
M125.536942,133.981339 
	C125.142036,134.100525 124.913795,134.079071 124.343231,134.025208 
	C124.525238,133.738541 125.049568,133.484283 125.856979,133.159576 
	C126.033424,133.362244 125.887932,133.612762 125.536942,133.981339 
z"/>
</svg>
